<svg width="32" height="32" viewBox="0 0 32 32" fill="none" xmlns="http://www.w3.org/2000/svg">
<path d="M22.6667 16C22.6667 19.6818 19.6818 22.6667 16 22.6667C12.3181 22.6667 9.33333 19.6818 9.33333 16C9.33333 12.3181 12.3181 9.33333 16 9.33333C19.6818 9.33333 22.6667 12.3181 22.6667 16ZM22.6667 16V18.5C22.6667 20.8012 24.5322 22.6667 26.8333 22.6667C29.1345 22.6667 31 20.8012 31 18.5V16C31 7.71573 24.2843 1 16 1C7.71573 1 1 7.71573 1 16C1 24.2843 7.71573 31 16 31H22.6667" stroke="#9C40EB" stroke-width="2" stroke-linecap="round" stroke-linejoin="round"/>
</svg>
