<svg width="30" height="30" viewBox="0 0 30 30" fill="none" xmlns="http://www.w3.org/2000/svg">
<path fill-rule="evenodd" clip-rule="evenodd" d="M30 30H24V19.5015C24 16.6215 22.7295 15.0146 20.451 15.0146C17.9715 15.0146 16.5 16.689 16.5 19.5015V30H10.5V10.5H16.5V12.6929C16.5 12.6929 18.3825 9.38965 22.6245 9.38965C26.868 9.38965 30 11.9792 30 17.3372V30ZM3.663 7.38135C1.6395 7.38135 0 5.72844 0 3.68994C0 1.65294 1.6395 0 3.663 0C5.685 0 7.32449 1.65294 7.32449 3.68994C7.32599 5.72844 5.685 7.38135 3.663 7.38135ZM0 30H7.5V10.5H0V30Z" fill="#9C40EB"/>
</svg>
