<svg width="12" height="12" viewBox="0 0 12 12" fill="none" xmlns="http://www.w3.org/2000/svg">
<path d="M11.1188 6.0001V10.7207C11.1191 10.7731 11.109 10.825 11.089 10.8734C11.0691 10.9219 11.0398 10.9659 11.0028 11.0029C10.9658 11.0399 10.9218 11.0692 10.8733 11.0891C10.8249 11.109 10.773 11.1191 10.7206 11.1189H1.27939C1.22702 11.1191 1.17512 11.109 1.12669 11.0891C1.07826 11.0692 1.03425 11.0399 0.997223 11.0029C0.960196 10.9659 0.930882 10.9219 0.910977 10.8734C0.891072 10.825 0.880972 10.7731 0.881262 10.7207V1.27948C0.880972 1.22712 0.891072 1.17521 0.910977 1.12678C0.930882 1.07835 0.960196 1.03434 0.997223 0.997315C1.03425 0.960288 1.07826 0.930973 1.12669 0.911068C1.17512 0.891163 1.22702 0.881064 1.27939 0.881354H6.00001" stroke="white"/>
<path d="M7.82001 0.881348H11.1188V4.28947" stroke="white"/>
<path d="M3.22626 9.00116L10.9459 0.948975" stroke="white"/>
</svg>
