<svg width="78" height="78" viewBox="0 0 78 78" fill="none" xmlns="http://www.w3.org/2000/svg">
<g clip-path="url(#clip0_119_26)">
<mask id="mask0_119_26" style="mask-type:luminance" maskUnits="userSpaceOnUse" x="15" y="15" width="48" height="48">
<path d="M63 15H15V63H63V15Z" fill="white"/>
</mask>
<g mask="url(#mask0_119_26)">
<path d="M62.9774 39.0693C62.9774 52.3314 52.2693 63.0815 39.0588 63.0815C25.8494 63.0815 15.1401 52.3315 15.1401 39.0693C15.1401 25.8081 25.8494 15.0569 39.0588 15.0569C52.2693 15.0569 62.9774 25.8082 62.9774 39.0693Z" fill="#1A1918"/>
<path d="M39.4612 29.7254L45.6509 45.0621L36.3015 37.6687L39.4612 29.7254ZM50.4571 48.5951L40.9361 25.5923C40.6643 24.9289 40.1208 24.5779 39.4612 24.5779C38.8004 24.5779 38.2174 24.9289 37.9456 25.5923L27.4957 50.8234H31.0704L35.2071 40.4205L47.5519 50.4327C48.0484 50.8358 48.4066 51.018 48.8723 51.018C49.8049 51.018 50.6201 50.3162 50.6201 49.303C50.6201 49.1381 50.5621 48.8765 50.4571 48.5951Z" fill="white"/>
</g>
</g>
<defs>
<clipPath id="clip0_119_26">
<rect width="48" height="48" fill="white" transform="translate(15 15)"/>
</clipPath>
</defs>
</svg>
