<svg width="78" height="78" viewBox="0 0 78 78" fill="none" xmlns="http://www.w3.org/2000/svg">
<path fill-rule="evenodd" clip-rule="evenodd" d="M37.7875 16.3137C38.538 15.8964 39.4619 15.8964 40.2113 16.3137C43.9195 18.376 55.0782 24.5838 58.7874 26.6462C59.5379 27.0624 59.9999 27.8334 59.9999 28.668C59.9999 32.7926 59.9999 45.2072 59.9999 49.3318C59.9999 50.1664 59.5379 50.9374 58.7874 51.3547C55.0793 53.4171 43.9206 59.6249 40.2113 61.6872C39.4608 62.1045 38.5368 62.1045 37.7875 61.6872C34.0793 59.6249 22.9206 53.4171 19.2114 51.3547C18.462 50.9374 18 50.1675 18 49.3329C18 45.2082 18 32.7937 18 28.6691C18 27.8345 18.462 27.0635 19.2125 26.6462C22.9195 24.5838 34.0804 18.376 37.7875 16.3137Z" fill="#004482"/>
<path fill-rule="evenodd" clip-rule="evenodd" d="M18.336 50.3951C18.042 50.0052 18 49.635 18 49.1367C18 45.0361 18 32.6928 18 28.5912C18 27.761 18.4609 26.9943 19.2092 26.5803C22.904 24.53 34.0252 18.3584 37.7201 16.307C38.4683 15.8919 39.4818 15.9006 40.2301 16.3157C43.925 18.366 55.0085 24.4851 58.7034 26.5354C59.0019 26.7019 59.2295 26.9023 59.4329 27.1663L18.336 50.3951Z" fill="#659AD2"/>
<path fill-rule="evenodd" clip-rule="evenodd" d="M38.9999 23.667C47.5402 23.667 54.4735 30.5374 54.4735 39.0003C54.4735 47.4632 47.5402 54.3336 38.9999 54.3336C30.4595 54.3336 23.5262 47.4632 23.5262 39.0003C23.5262 30.5374 30.4595 23.667 38.9999 23.667ZM38.9999 31.3337C43.2695 31.3337 46.7367 34.7683 46.7367 39.0003C46.7367 43.2312 43.2695 46.667 38.9999 46.667C34.7303 46.667 31.2631 43.2312 31.2631 39.0003C31.2631 34.7683 34.7292 31.3337 38.9999 31.3337Z" fill="white"/>
<path fill-rule="evenodd" clip-rule="evenodd" d="M59.4308 27.1772C60.0011 27.7062 59.99 28.5036 59.99 29.1311C59.99 33.2876 59.9546 45.1096 60 49.266C60.0044 49.6997 59.8596 50.1564 59.643 50.5003L38.5502 39.0003L59.4308 27.1772Z" fill="#00599C"/>
</svg>
