<svg width="78" height="78" viewBox="0 0 78 78" fill="none" xmlns="http://www.w3.org/2000/svg">
<path d="M57.7447 41.1611C58.2049 41.6167 58.1853 41.8642 57.7349 42.3015C56.1965 43.8006 54.6861 45.3404 53.1714 46.8704C52.9127 47.132 52.7253 47.3331 52.3575 46.9604C47.8028 42.3432 43.2397 37.7354 38.6683 33.137C35.8814 30.3582 33.0931 27.5809 30.3035 24.805C30.0349 24.5392 30.0657 24.3592 30.3189 24.1018C31.944 22.4837 33.5612 20.8567 35.1705 19.2207C35.4698 18.9156 35.653 18.969 35.9243 19.2447C37.9075 21.2659 39.8981 23.2815 41.8962 25.2915C42.4374 25.8175 42.9759 26.3476 43.5213 26.8679C43.7395 27.0761 43.9087 27.3629 44.2612 27.3756C46.9604 24.6681 49.6578 21.9582 52.3533 19.2461C52.6539 18.9423 52.8442 18.9001 53.1686 19.2306C54.7168 20.8056 56.2762 22.3707 57.8636 23.9064C58.2762 24.3043 58.2342 24.5195 57.851 24.8992C55.3168 27.4122 52.8232 29.9617 50.275 32.4648C49.7505 32.9781 49.8107 33.2298 50.2974 33.7093C52.7966 36.1745 55.2469 38.6931 57.7447 41.1611ZM38.4795 44.245C38.4528 44.1952 38.4215 44.1481 38.3858 44.1043C33.8721 39.565 29.3599 35.0232 24.8491 30.4792C24.505 30.1332 24.305 30.1403 23.9694 30.4792C22.4477 32.0415 20.9163 33.5954 19.3541 35.1198C18.9094 35.5501 18.9681 35.7822 19.3751 36.1857C21.8687 38.6607 24.3204 41.1765 26.8224 43.6389C27.3287 44.1395 27.3119 44.4109 26.8127 44.9045C24.2952 47.3936 21.8226 49.929 19.3177 52.4322C18.9513 52.7978 18.8534 53.0172 19.2842 53.4376C20.845 54.9606 22.3722 56.5173 23.8841 58.0909C24.2477 58.4706 24.4435 58.465 24.8113 58.0909C26.5287 56.3256 28.2648 54.5776 30.0196 52.847C30.978 51.8083 31.9916 50.8225 33.0558 49.8939L35.2516 52.0932C37.2404 54.0995 39.2273 56.1081 41.2123 58.119C41.492 58.4003 41.6976 58.4101 41.9815 58.119C43.5889 56.4887 45.2038 54.8664 46.8261 53.252C47.0849 52.9947 47.0877 52.8147 46.8261 52.5489C44.0383 49.7898 41.2561 47.0218 38.4795 44.245Z" fill="url(#paint0_linear_119_26)"/>
<defs>
<linearGradient id="paint0_linear_119_26" x1="21.5736" y1="55.772" x2="55.752" y2="21.7804" gradientUnits="userSpaceOnUse">
<stop stop-color="#7ECEFD"/>
<stop offset="1" stop-color="#56B1FC"/>
</linearGradient>
</defs>
</svg>
