<svg width="78" height="78" viewBox="0 0 78 78" fill="none" xmlns="http://www.w3.org/2000/svg">
<path d="M52.1636 28.4495L52.6032 27.7827L53.3709 28.2497L53.7108 28.4936C54.5312 29.1281 56.2571 30.7496 56.6292 33.4403C57.2827 33.3228 57.942 33.2641 58.6013 33.2641C60.166 33.2641 61.2179 33.6283 61.8157 33.9309L62.1234 34.0983L62.3226 34.2305L62.8823 34.6887L62.6889 35.2762C62.3883 36.0817 61.9186 36.8129 61.3117 37.4206C60.4619 38.2989 58.9675 39.3359 56.597 39.471L56.0754 39.4857H55.6418C54.5576 42.3556 53.1013 45.5898 50.6546 48.4921C49.2028 50.2167 47.4808 51.693 45.556 52.8631C43.2485 54.2355 40.7216 55.1975 38.087 55.7066C36.1999 56.0737 34.2836 56.2559 32.3643 56.25C28.1155 56.25 24.3649 55.404 22.0588 53.9235C19.9989 52.6046 18.4166 50.4514 17.3529 47.5286C16.4221 44.8578 15.9649 42.0443 16.0021 39.2154C15.9973 38.8527 16.1224 38.5003 16.3546 38.2222C16.5869 37.9441 16.9109 37.7587 17.2679 37.6997L17.4672 37.685H48.3514L48.621 37.6644L49.0576 37.6174C49.8078 37.5176 50.9505 37.2943 51.7534 36.8243C50.7923 35.2292 50.5198 33.3639 50.9681 31.3782C51.1559 30.5499 51.4514 29.7499 51.8472 28.9988L52.1636 28.4495ZM24.4674 32.1155L24.5846 32.1361C24.6382 32.1561 24.6864 32.1883 24.7255 32.2301C24.7646 32.2719 24.7936 32.3221 24.8103 32.3769L24.8278 32.4944V36.3572L24.8103 36.4777C24.7933 36.5328 24.7639 36.5833 24.7242 36.6251C24.6846 36.6669 24.6358 36.6989 24.5817 36.7186L24.4674 36.7362H20.33C20.2529 36.7351 20.1781 36.7095 20.1165 36.6631C20.0548 36.6166 20.0095 36.5517 19.9872 36.4777L19.9667 36.3602V32.4915L19.9872 32.374C20.0037 32.3183 20.033 32.2673 20.0726 32.225C20.1123 32.1826 20.1613 32.1502 20.2157 32.1302L20.33 32.1126L24.4674 32.1155ZM30.1725 32.1155L30.2868 32.1361C30.3409 32.1558 30.3897 32.1878 30.4293 32.2296C30.469 32.2714 30.4984 32.3218 30.5154 32.3769L30.5329 32.4944V36.3572L30.5124 36.4777C30.4955 36.5328 30.466 36.5833 30.4264 36.6251C30.3867 36.6669 30.3379 36.6989 30.2839 36.7186L30.1696 36.7362H26.0322C25.9552 36.7347 25.8806 36.7089 25.819 36.6625C25.7575 36.6161 25.7121 36.5514 25.6893 36.4777L25.6688 36.3631V32.4944C25.6682 32.4158 25.6918 32.339 25.7363 32.2743C25.7809 32.2096 25.8443 32.1603 25.9179 32.1331L26.0322 32.1126L30.1725 32.1155ZM35.9626 32.1155L36.0769 32.1361C36.1304 32.1561 36.1786 32.1883 36.2177 32.2301C36.2569 32.2719 36.2859 32.3221 36.3025 32.3769L36.323 32.4944V36.3572L36.3025 36.4777C36.2856 36.5328 36.2561 36.5833 36.2165 36.6251C36.1768 36.6669 36.128 36.6989 36.0739 36.7186L35.9597 36.7362H31.8222C31.7451 36.7351 31.6703 36.7095 31.6087 36.6631C31.5471 36.6166 31.5018 36.5517 31.4794 36.4777L31.4618 36.3602V32.4915L31.4794 32.374C31.4959 32.3183 31.5252 32.2673 31.5649 32.225C31.6046 32.1826 31.6535 32.1502 31.7079 32.1302L31.8222 32.1126L35.9626 32.1155ZM41.6823 32.1155L41.7966 32.1361C41.8507 32.1558 41.8995 32.1878 41.9391 32.2296C41.9788 32.2714 42.0082 32.3218 42.0252 32.3769L42.0457 32.4944V36.3572C42.0463 36.4358 42.0227 36.5127 41.9781 36.5774C41.9336 36.6421 41.8702 36.6914 41.7966 36.7186L41.6794 36.7362H37.5449C37.4678 36.7351 37.393 36.7095 37.3314 36.6631C37.2697 36.6166 37.2244 36.5517 37.2021 36.4777L37.1845 36.3602V32.4915L37.2021 32.374C37.2186 32.3183 37.2479 32.2673 37.2875 32.225C37.3272 32.1826 37.3762 32.1502 37.4306 32.1302L37.5478 32.1126H41.6853L41.6823 32.1155ZM47.4548 32.1155L47.5691 32.1361C47.6232 32.1558 47.6719 32.1878 47.7116 32.2296C47.7513 32.2714 47.7807 32.3218 47.7976 32.3769L47.8152 32.4944V36.3572C47.8158 36.4358 47.7923 36.5127 47.7477 36.5774C47.7031 36.6421 47.6397 36.6914 47.5662 36.7186L47.4519 36.7362H43.3144C43.2373 36.7351 43.1625 36.7095 43.1009 36.6631C43.0393 36.6166 42.994 36.5517 42.9716 36.4777L42.954 36.3602V32.4915L42.9716 32.374C42.9881 32.3183 43.0174 32.2673 43.0571 32.225C43.0968 32.1826 43.1458 32.1502 43.2002 32.1302L43.3174 32.1126H47.4519L47.4548 32.1155ZM30.1667 26.5577L30.2839 26.5783C30.3371 26.5981 30.3851 26.6298 30.4242 26.6711C30.4633 26.7123 30.4925 26.762 30.5095 26.8162L30.53 26.9367V30.7995C30.5306 30.8781 30.507 30.955 30.4625 31.0196C30.4179 31.0843 30.3545 31.1336 30.2809 31.1608L30.1667 31.1814H26.0322C25.9544 31.1795 25.8793 31.1529 25.8177 31.1053C25.756 31.0578 25.7111 30.9918 25.6893 30.917L25.6688 30.7995V26.9367C25.6688 26.8586 25.6927 26.7824 25.7372 26.7183C25.7817 26.6542 25.8448 26.6053 25.9179 26.5783L26.0322 26.5577H30.1667ZM35.9567 26.5577L36.0739 26.5783C36.1271 26.5981 36.1751 26.6298 36.2143 26.6711C36.2534 26.7123 36.2825 26.762 36.2996 26.8162L36.3201 26.9367V30.7995C36.3207 30.8781 36.2971 30.955 36.2525 31.0196C36.208 31.0843 36.1446 31.1336 36.071 31.1608L35.9567 31.1814H31.8222C31.7445 31.1795 31.6694 31.1529 31.6077 31.1053C31.5461 31.0578 31.5011 30.9918 31.4794 30.917L31.4618 30.7995V26.9367L31.4794 26.8192C31.4963 26.7641 31.5258 26.7136 31.5654 26.6718C31.6051 26.63 31.6539 26.598 31.7079 26.5783L31.8222 26.5577H35.9567ZM41.6794 26.5577C41.8376 26.5577 41.9724 26.6664 42.0222 26.8162L42.0427 26.9367V30.7995C42.0434 30.8781 42.0198 30.955 41.9752 31.0196C41.9306 31.0843 41.8672 31.1336 41.7937 31.1608L41.6765 31.1814H37.5449C37.4672 31.1795 37.392 31.1529 37.3304 31.1053C37.2688 31.0578 37.2238 30.9918 37.2021 30.917L37.1845 30.7995V26.9367L37.2021 26.8192C37.219 26.7641 37.2484 26.7136 37.2881 26.6718C37.3277 26.63 37.3765 26.598 37.4306 26.5783L37.5478 26.5577H41.6853H41.6794ZM41.6794 21C41.8376 21 41.9724 21.1087 42.0222 21.2585L42.0427 21.376V25.2417C42.0434 25.3203 42.0198 25.3972 41.9752 25.4619C41.9306 25.5266 41.8672 25.5759 41.7937 25.6031L41.6765 25.6207H37.5449C37.4678 25.6197 37.393 25.594 37.3314 25.5476C37.2697 25.5011 37.2244 25.4362 37.2021 25.3622L37.1845 25.2447V21.376L37.2021 21.2585C37.219 21.2034 37.2484 21.1529 37.2881 21.1111C37.3277 21.0693 37.3765 21.0373 37.4306 21.0176L37.5449 21H41.6823H41.6794Z" fill="#2396ED"/>
</svg>
