<svg width="78" height="78" viewBox="0 0 78 78" fill="none" xmlns="http://www.w3.org/2000/svg">
<path fill-rule="evenodd" clip-rule="evenodd" d="M23.4882 39.3504C23.5406 42.0607 23.8653 44.5768 24.4636 46.8973C25.0606 49.2165 25.9823 51.2378 27.2326 52.9584C28.4803 54.6778 30.0933 56.0336 32.069 57.0246C34.0459 58.0155 36.4641 58.5103 39.3221 58.5103C43.5379 58.5103 47.0335 57.4026 49.817 55.1871C52.5991 52.9689 54.3286 49.6483 55.0042 45.216H56.5648C55.9926 49.9082 54.1466 53.5438 51.0267 56.1255C47.9055 58.7059 44.0563 59.9974 39.4792 59.9974C36.3593 60.0499 33.6924 59.5537 31.4837 58.5103C29.2711 57.4682 27.4644 55.9943 26.0609 54.0911C24.6561 52.188 23.6165 49.9463 22.941 47.3659C22.2654 44.7855 21.9276 42.0109 21.9276 39.0368C21.9276 35.7004 22.4212 32.7289 23.4097 30.1222C24.3981 27.5156 25.6982 25.3106 27.3112 23.5125C28.9189 21.7144 30.7911 20.3494 32.9252 19.4096C35.0592 18.4699 37.2431 18 39.4792 18C42.5991 18 45.2922 18.5998 47.5533 19.7981C49.8156 20.9978 51.6617 22.5885 53.0914 24.5691C54.5224 26.5509 55.5619 28.8189 56.2126 31.3731C56.862 33.9259 57.1356 36.5837 57.0309 39.3491H23.4895L23.4882 39.3504ZM55.4729 37.7859C55.4729 35.3355 55.1325 33.0019 54.4582 30.7864C53.7826 28.5709 52.7824 26.6284 51.4548 24.9589C50.1286 23.292 48.4776 21.9756 46.5007 21.0109C44.5237 20.0462 42.2352 19.5645 39.635 19.5645C37.4486 19.5645 35.4088 19.9806 33.5104 20.8153C31.612 21.6501 29.9493 22.8628 28.5183 24.4509C27.0886 26.0417 25.9313 27.9579 25.0462 30.1997C24.1625 32.4414 23.6427 34.9706 23.4882 37.7859H55.4729Z" fill="white"/>
</svg>
