<svg width="78" height="78" viewBox="0 0 78 78" fill="none" xmlns="http://www.w3.org/2000/svg">
<path d="M39.3656 38.5625C39.3656 34.7761 42.3589 31.7094 46.0484 31.7094C49.7409 31.7094 52.7312 34.7732 52.7312 38.5625C52.7312 42.349 49.7409 45.4157 46.0484 45.4157C42.3618 45.4157 39.3656 42.3519 39.3656 38.5625Z" fill="#1ABCFE"/>
<path d="M26 52.2718C26 48.4853 28.9933 45.4156 32.6828 45.4156H39.3656V52.2718C39.3656 56.0553 36.3723 59.125 32.6828 59.125C28.9933 59.125 26 56.0553 26 52.2718Z" fill="#0ACF83"/>
<path d="M39.3656 18V31.7093H46.0484C49.7409 31.7093 52.7312 28.6396 52.7312 24.8532C52.7312 21.0697 49.7409 18 46.0484 18H39.3656Z" fill="#FF7262"/>
<path d="M26 24.8532C26 28.6396 28.9933 31.7093 32.6828 31.7093H39.3656V18H32.6828C28.9933 18 26 21.0697 26 24.8532Z" fill="#F24E1E"/>
<path d="M26 38.5625C26 42.349 28.9933 45.4157 32.6828 45.4157H39.3656V31.7094H32.6828C28.9933 31.7094 26 34.7732 26 38.5625Z" fill="#A259FF"/>
</svg>
