<svg width="78" height="78" viewBox="0 0 78 78" fill="none" xmlns="http://www.w3.org/2000/svg">
<path d="M60.6718 41.5125L58.2187 34.1563L53.3687 19.5625C53.3113 19.3973 53.2035 19.2542 53.0606 19.1533C52.9177 19.0524 52.7468 18.9988 52.5718 19C52.3974 18.9995 52.2272 19.0534 52.0849 19.1542C51.9426 19.255 51.8354 19.3978 51.7781 19.5625L46.9281 34.1469H30.8187L25.9687 19.5594C25.9113 19.395 25.8039 19.2527 25.6616 19.1523C25.5193 19.052 25.3491 18.9988 25.175 19C25.0005 18.999 24.83 19.0527 24.6876 19.1536C24.5452 19.2545 24.4381 19.3975 24.3812 19.5625L19.5375 34.1469L17.0875 41.5125C16.979 41.8407 16.9791 42.1951 17.0878 42.5232C17.1964 42.8513 17.4078 43.1357 17.6906 43.3344L38.8781 58.3719L60.0593 43.3344C60.3435 43.1367 60.5564 42.8528 60.6667 42.5247C60.777 42.1966 60.7788 41.8417 60.6718 41.5125Z" fill="#FC6D26"/>
<path d="M38.875 58.3625L46.9313 34.1438H30.8219L38.875 58.3625Z" fill="#E24329"/>
<path d="M38.875 58.3625L30.8156 34.1438H19.5406L38.875 58.3625Z" fill="#FC6D26"/>
<path d="M19.5312 34.1531L17.0812 41.5093C16.9728 41.8375 16.9729 42.1919 17.0815 42.52C17.1902 42.8481 17.4015 43.1325 17.6844 43.3312L38.875 58.375L19.5312 34.1562V34.1531Z" fill="#FCA326"/>
<path d="M19.5375 34.1531H30.825L25.9687 19.5687C25.9115 19.404 25.8042 19.2613 25.6619 19.1604C25.5196 19.0596 25.3494 19.0057 25.175 19.0062C25 19.005 24.8291 19.0586 24.6862 19.1595C24.5433 19.2604 24.4355 19.4035 24.3781 19.5687L19.5375 34.1531Z" fill="#E24329"/>
<path d="M38.875 58.3625L46.9312 34.1438H58.225L38.875 58.3625Z" fill="#FC6D26"/>
<path d="M58.2187 34.1531L60.6656 41.5093C60.7746 41.8375 60.7747 42.192 60.6661 42.5202C60.5574 42.8485 60.3457 43.1329 60.0625 43.3312L38.875 58.3625L58.2125 34.1531H58.2187Z" fill="#FCA326"/>
<path d="M58.2187 34.1531H46.9375L51.7844 19.5688C51.8414 19.4033 51.949 19.2599 52.0921 19.1589C52.2351 19.058 52.4062 19.0046 52.5812 19.0063C52.9406 19.0063 53.2594 19.2344 53.375 19.5688L58.225 34.1531H58.2187Z" fill="#E24329"/>
</svg>
