<svg width="78" height="78" viewBox="0 0 78 78" fill="none" xmlns="http://www.w3.org/2000/svg">
<path d="M17.8455 34.756C17.7462 34.756 17.7214 34.7064 17.771 34.6321L18.292 33.9632C18.3416 33.8889 18.4657 33.8394 18.5649 33.8394H27.4218C27.5211 33.8394 27.5459 33.9137 27.4963 33.988L27.0745 34.6321C27.0249 34.7064 26.9008 34.7808 26.8264 34.7808L17.8455 34.756Z" fill="#00ACD7"/>
<path d="M14.0992 37.0352C14 37.0352 13.9752 36.9856 14.0248 36.9113L14.5458 36.2424C14.5954 36.1681 14.7195 36.1185 14.8187 36.1185H26.1317C26.231 36.1185 26.2806 36.1929 26.2558 36.2672L26.0573 36.8617C26.0325 36.9608 25.9333 37.0104 25.834 37.0104L14.0992 37.0352Z" fill="#00ACD7"/>
<path d="M20.1031 39.3143C20.0039 39.3143 19.9791 39.24 20.0287 39.1657L20.376 38.5463C20.4257 38.472 20.5249 38.3977 20.6241 38.3977H25.586C25.6852 38.3977 25.7348 38.472 25.7348 38.5711L25.6852 39.1657C25.6852 39.2648 25.586 39.3391 25.5116 39.3391L20.1031 39.3143Z" fill="#00ACD7"/>
<path d="M45.8551 34.3101C44.2921 34.7064 43.2254 35.0037 41.6872 35.4001C41.315 35.4992 41.2902 35.524 40.9677 35.1524C40.5956 34.7312 40.3227 34.4587 39.8017 34.211C38.2387 33.443 36.7253 33.6659 35.3112 34.5826C33.6242 35.6726 32.7558 37.2829 32.7806 39.2896C32.8055 41.2715 34.17 42.9065 36.1299 43.179C37.8169 43.402 39.2311 42.8074 40.3475 41.544C40.5708 41.2715 40.7692 40.9742 41.0173 40.6273C40.1242 40.6273 39.0078 40.6273 36.2291 40.6273C35.7081 40.6273 35.5841 40.3053 35.7578 39.8841C36.0803 39.1161 36.6757 37.8279 37.023 37.1838C37.0975 37.0352 37.2711 36.7874 37.6433 36.7874C38.9085 36.7874 43.5727 36.7874 46.6738 36.7874C46.6242 37.4563 46.6242 38.1252 46.525 38.7941C46.2521 40.5778 45.5822 42.2129 44.4906 43.6497C42.7044 46.0032 40.3723 47.4649 37.42 47.8612C34.9887 48.1833 32.731 47.7126 30.7463 46.2262C28.9104 44.8389 27.8684 43.0056 27.5955 40.7264C27.273 38.0261 28.0669 35.5983 29.7043 33.4678C31.4658 31.1638 33.7978 29.7022 36.6509 29.1819C38.983 28.7608 41.2158 29.0333 43.2254 30.3958C44.5402 31.2629 45.483 32.452 46.1032 33.8889C46.2521 34.1119 46.1528 34.2357 45.8551 34.3101Z" fill="#00ACD7"/>
<path d="M54.0669 48.01C51.8093 47.9604 49.7501 47.3163 48.0135 45.8299C46.5497 44.5664 45.6318 42.9562 45.3341 41.0486C44.8875 38.2492 45.6566 35.7718 47.3436 33.5669C49.1547 31.1887 51.3379 29.95 54.2902 29.4297C56.8207 28.9838 59.2024 29.2316 61.3608 30.6932C63.3208 32.031 64.5364 33.8395 64.8589 36.2177C65.2807 39.5622 64.3131 42.2873 62.0059 44.616C60.3685 46.2758 58.3589 47.3163 56.0517 47.787C55.3818 47.9109 54.712 47.9357 54.0669 48.01ZM59.9715 38.0014C59.9467 37.6794 59.9467 37.4316 59.8971 37.1839C59.4505 34.7313 57.1929 33.344 54.836 33.889C52.5287 34.4093 51.0402 35.8709 50.4944 38.1996C50.0478 40.132 50.9906 42.0891 52.7768 42.8818C54.1413 43.4764 55.5059 43.4021 56.8207 42.7332C58.7807 41.7175 59.8475 40.132 59.9715 38.0014Z" fill="#00ACD7"/>
</svg>
