<svg width="78" height="78" viewBox="0 0 78 78" fill="none" xmlns="http://www.w3.org/2000/svg">
<path d="M29.2254 57.8589C29.8506 58.6756 30.8001 59.125 31.7788 59.125H47.1193C48.098 59.125 49.0474 58.6403 49.6756 57.8501L59.1936 45.5773C59.8188 44.7606 60.035 43.7178 59.8188 42.7044L56.4153 27.4088C56.3112 26.9185 56.0978 26.4583 55.7911 26.0629C55.4844 25.6676 55.0925 25.3474 54.6449 25.1264L40.8732 18.3408C40.4345 18.1157 39.9488 17.9989 39.4563 18C38.9655 18 38.4776 18.1116 38.0394 18.3378L24.2648 25.1528C23.8179 25.3743 23.4266 25.6948 23.1205 26.0901C22.8144 26.4854 22.6013 26.9453 22.4973 27.4353L19.0938 42.7338C18.8484 43.7472 19.0938 44.79 19.719 45.6066L29.2254 57.856V57.8589Z" fill="#326DE6"/>
<path fill-rule="evenodd" clip-rule="evenodd" d="M53.301 41.876C53.5873 41.8818 53.8737 41.9053 54.157 41.9465L54.3265 41.9846L54.417 42.0081C54.5403 42.0247 54.6588 42.0669 54.7651 42.1318C54.8713 42.1968 54.963 42.2832 55.0344 42.3856C55.1058 42.488 55.1553 42.6042 55.1797 42.7268C55.2042 42.8494 55.2032 42.9758 55.1766 43.098C55.1492 43.2207 55.0964 43.3364 55.0217 43.4373C54.947 43.5383 54.8521 43.6224 54.743 43.6842C54.634 43.7459 54.5133 43.7839 54.3887 43.7958C54.2641 43.8077 54.1384 43.7931 54.0197 43.753H54.008L53.9993 43.7501L53.9905 43.7442C53.9614 43.738 53.9321 43.7322 53.9029 43.7266L53.7568 43.6972C53.4842 43.609 53.217 43.505 52.9563 43.3858C52.4533 43.1818 51.9319 43.0273 51.3992 42.9246C51.2146 42.9193 51.0353 42.9868 50.8996 43.1126C50.7724 43.0883 50.6448 43.0658 50.5169 43.0451C49.6507 45.7737 47.8164 48.0865 45.3635 49.5428C45.4073 49.6662 45.457 49.7866 45.5125 49.9041C45.4218 50.0647 45.3977 50.2546 45.4453 50.4329C45.6615 50.9323 45.9273 51.4081 46.237 51.8546C46.4123 52.0838 46.57 52.3246 46.7161 52.5714L46.7979 52.7388L46.833 52.8123C46.9305 52.9748 46.9743 53.1642 46.9582 53.3533C46.9421 53.5424 46.8669 53.7216 46.7434 53.8651C46.6198 54.0085 46.4542 54.109 46.2704 54.1521C46.0865 54.1951 45.8938 54.1786 45.7199 54.1048C45.6041 54.0566 45.4997 53.9848 45.4131 53.8937C45.3266 53.8027 45.2599 53.6945 45.2174 53.576L45.1882 53.5173C45.1598 53.461 45.1325 53.4042 45.1064 53.3469C45.004 53.078 44.9172 52.8034 44.8464 52.5244C44.6911 52.0042 44.4856 51.5004 44.2329 51.0204C44.123 50.8711 43.9595 50.7709 43.7771 50.7413L43.6895 50.5856L43.5872 50.3976C40.9285 51.407 37.9937 51.3997 35.34 50.3771L35.1355 50.7443C34.9911 50.7667 34.8568 50.8322 34.7499 50.9323C34.445 51.4335 34.212 51.9754 34.0575 52.542C33.9878 52.821 33.9019 53.0956 33.8004 53.3645C33.7772 53.414 33.7528 53.463 33.7273 53.5114L33.6894 53.5907C33.6473 53.7095 33.5808 53.821 33.4943 53.9122C33.4077 54.0035 33.303 54.0754 33.187 54.1234C33.0711 54.1713 32.9463 54.1941 32.821 54.1904C32.6956 54.1867 32.5724 54.1565 32.4594 54.1018C32.29 54.0204 32.1502 53.8876 32.0595 53.7222C31.9689 53.5568 31.932 53.367 31.954 53.1795C31.969 53.0548 32.0098 52.9348 32.0738 52.827L32.1147 52.7388L32.1907 52.5861C32.3367 52.3364 32.4945 52.0985 32.6698 51.8693C32.9853 51.4111 33.2541 50.9235 33.479 50.4123C33.5023 50.2385 33.4738 50.0617 33.3972 49.9041L33.5608 49.5135C31.117 48.0684 29.2838 45.7738 28.4074 43.0627L28.0159 43.1303C27.8648 43.0225 27.6867 42.9594 27.5017 42.9481C26.9692 43.0499 26.4477 43.2034 25.9446 43.4064C25.6817 43.5239 25.4158 43.6267 25.1441 43.7148C25.0957 43.7268 25.047 43.7376 24.9981 43.7471L24.9104 43.7677H24.9017L24.8958 43.7736H24.8812C24.7331 43.8214 24.5752 43.8297 24.4229 43.7978C24.2706 43.7659 24.1291 43.6949 24.0123 43.5916C23.8954 43.4883 23.8072 43.3563 23.7562 43.2086C23.7053 43.0608 23.6932 42.9022 23.7214 42.7484C23.7572 42.5631 23.8502 42.3939 23.9871 42.2647C24.1239 42.1356 24.2977 42.053 24.4839 42.0287L24.4985 42.0258H24.5043L24.5219 42.0199C24.592 42.0023 24.6796 41.9788 24.7439 41.967C25.0273 41.9288 25.3136 41.9053 25.5999 41.8995C26.1433 41.8613 26.6808 41.7731 27.2038 41.6351C27.3587 41.5352 27.4895 41.4017 27.5865 41.2444L27.9604 41.1357C27.5549 38.3068 28.2053 35.427 29.7863 33.0517L29.5 32.7961C29.4891 32.6101 29.4263 32.431 29.3189 32.2791C28.9072 31.9241 28.462 31.6102 27.9896 31.3421C27.7342 31.2116 27.4864 31.0664 27.2476 30.9073L27.1073 30.7957L27.0635 30.7575L27.0518 30.7487C26.8483 30.6029 26.7105 30.3818 26.6689 30.1339C26.6273 29.8861 26.6851 29.6318 26.8298 29.4268C26.9158 29.3219 27.0251 29.2387 27.1489 29.1841C27.2728 29.1295 27.4076 29.105 27.5426 29.1125C27.7697 29.1222 27.9877 29.2045 28.1649 29.3475L28.2292 29.3975C28.2759 29.4356 28.3285 29.4738 28.3636 29.5061C28.5739 29.703 28.7697 29.9145 28.9537 30.1318C29.3189 30.5343 29.722 30.9015 30.1573 31.2246C30.3209 31.3127 30.5108 31.3303 30.689 31.2775L31.0104 31.5066C32.9666 29.4205 35.6235 28.1391 38.4659 27.9111L38.4893 27.5321C38.6278 27.4084 38.7282 27.2473 38.7785 27.068C38.7981 26.5246 38.7648 25.9805 38.6792 25.4436C38.6222 25.1622 38.5812 24.8778 38.5565 24.5917V24.3508V24.3361C38.5438 24.2107 38.5575 24.0839 38.5967 23.9641C38.6359 23.8443 38.6997 23.7342 38.784 23.6408C38.8683 23.5474 38.9713 23.473 39.0861 23.4222C39.2009 23.3714 39.325 23.3456 39.4505 23.3462C39.5756 23.3465 39.6993 23.373 39.8137 23.424C39.9281 23.4751 40.0306 23.5496 40.1148 23.6427C40.1989 23.7359 40.2628 23.8457 40.3023 23.9651C40.3419 24.0845 40.3562 24.2109 40.3444 24.3361V24.5917C40.3209 24.8777 40.2809 25.1622 40.2246 25.4436C40.1382 25.9804 40.1039 26.5245 40.1224 27.068C40.1576 27.2505 40.2625 27.4118 40.4145 27.5175V27.538L40.435 27.917C43.26 28.1755 45.8981 29.4503 47.8555 31.5095L48.1944 31.2686C48.3774 31.3005 48.5656 31.2802 48.7377 31.2099C49.173 30.8868 49.5762 30.5166 49.9414 30.1142C50.1254 29.8939 50.3212 29.6853 50.5315 29.4885L50.6805 29.371L50.7302 29.3299C50.8196 29.2408 50.9266 29.1716 51.0443 29.1268C51.1621 29.0821 51.2878 29.0627 51.4135 29.07C51.5391 29.0774 51.6619 29.1112 51.7737 29.1693C51.8855 29.2275 51.9838 29.3086 52.0624 29.4075C52.1409 29.5064 52.1979 29.6208 52.2296 29.7433C52.2613 29.8658 52.267 29.9936 52.2463 30.1184C52.2256 30.2433 52.1791 30.3623 52.1096 30.4679C52.0402 30.5734 51.9494 30.6631 51.8432 30.7311L51.7731 30.7898C51.7293 30.8251 51.6855 30.8633 51.6475 30.8897C51.4087 31.0489 51.161 31.1941 50.9055 31.3245C50.4331 31.5938 49.988 31.9086 49.5762 32.2645C49.4564 32.4042 49.3956 32.5855 49.4068 32.7697L49.2607 32.899L49.0912 33.0546C50.6747 35.4223 51.3408 38.2922 50.9522 41.1181L51.3115 41.2238C51.4021 41.3854 51.5365 41.5205 51.7001 41.6116C52.223 41.7526 52.7606 41.8407 53.301 41.876ZM37.3792 30.455C37.6918 30.3845 38.0102 30.3286 38.3316 30.2905L38.0686 34.9905L38.0452 35.0022C38.041 35.1091 38.0151 35.2139 37.9691 35.3104C37.9232 35.4069 37.8582 35.4929 37.7781 35.5633C37.698 35.6337 37.6045 35.6869 37.5032 35.7197C37.402 35.7525 37.2952 35.7643 37.1893 35.7542C37.047 35.742 36.9107 35.6913 36.7949 35.6073L36.789 35.6103L32.9444 32.8784C34.1685 31.674 35.7052 30.8339 37.3792 30.455ZM42.1061 35.5956L45.9273 32.8813C44.4723 31.4518 42.5912 30.5417 40.5723 30.2905L40.8352 34.9846H40.8411C40.8453 35.0917 40.8713 35.1969 40.9174 35.2935C40.9636 35.3902 41.0288 35.4764 41.1092 35.5468C41.1897 35.6172 41.2835 35.6704 41.3851 35.703C41.4867 35.7356 41.5939 35.7471 41.7 35.7366C41.8422 35.7244 41.9786 35.6736 42.0944 35.5897L42.1061 35.5956ZM48.6735 40.4601L44.1511 39.15L44.1452 39.1323C44.0427 39.1038 43.947 39.0547 43.8639 38.9881C43.7807 38.9214 43.7118 38.8385 43.6613 38.7444C43.6108 38.6503 43.5798 38.5469 43.5701 38.4404C43.5604 38.3339 43.5722 38.2266 43.6048 38.1248C43.6494 37.9881 43.7302 37.8663 43.8385 37.7723L43.8326 37.7693L47.3238 34.635C48.393 36.3799 48.8634 38.4244 48.6676 40.4601H48.6735ZM42.6524 42.9687L44.4578 47.3456C46.1842 46.2411 47.495 44.5892 48.1827 42.6515L43.5288 41.8613L43.523 41.8701C43.3583 41.8382 43.1878 41.8619 43.038 41.9376C42.8566 42.0268 42.7161 42.1825 42.6455 42.3726C42.5748 42.5628 42.5794 42.773 42.6582 42.9599L42.6524 42.9687ZM41.5276 48.5646C39.8536 48.9465 38.1095 48.8584 36.4823 48.3061L38.7522 44.1936C38.8196 44.0677 38.9225 43.9625 39.0445 43.889C39.1665 43.8155 39.3059 43.7766 39.4481 43.7763C39.5903 43.776 39.73 43.8144 39.8522 43.8873C39.9745 43.9602 40.075 44.0651 40.1428 44.1907H40.1604L42.4362 48.3091C42.1377 48.4092 41.8345 48.4945 41.5276 48.5646ZM34.4636 47.325L36.2486 42.9951L36.2369 42.9775C36.2938 42.8459 36.3139 42.7012 36.295 42.559C36.2761 42.4168 36.2189 42.2825 36.1295 42.1705C36.0402 42.0586 35.9222 41.9734 35.7882 41.9241C35.6541 41.8748 35.5093 41.8632 35.3692 41.8906L35.3604 41.8818L30.7475 42.6661C31.4419 44.5883 32.7483 46.2261 34.4636 47.325ZM31.5509 34.635L35.0595 37.7811L35.0566 37.8016C35.1636 37.8956 35.2432 38.017 35.287 38.1529C35.3308 38.2888 35.3372 38.4341 35.3054 38.5733C35.2736 38.7126 35.2049 38.8405 35.1066 38.9436C35.0083 39.0467 34.884 39.1211 34.7469 39.1588L34.744 39.1735L30.245 40.4748C30.0212 38.4363 30.4808 36.381 31.5509 34.635ZM40.1691 38.0249H38.7318L37.8349 39.1411L38.1563 40.5394L39.4505 41.1651L40.7417 40.5423L41.0631 39.1441L40.1691 38.0249Z" fill="white"/>
</svg>
