<svg width="78" height="78" viewBox="0 0 78 78" fill="none" xmlns="http://www.w3.org/2000/svg">
<g clip-path="url(#clip0_119_26)">
<path d="M42.4775 25.3294C42.4704 25.2555 42.467 25.1815 42.467 25.1073C42.467 24.0219 43.178 23.1389 44.0516 23.1389C44.9457 23.1389 45.646 24.0035 45.646 25.1073C45.646 25.3573 45.6084 25.5982 45.5384 25.8208C45.8004 25.4043 45.952 24.8803 45.952 24.3309C45.952 23.011 45.1083 21.937 44.0714 21.937C43.0343 21.937 42.1908 23.0109 42.1908 24.3309C42.1908 24.6554 42.2416 24.973 42.3422 25.2777C42.386 25.2944 42.4312 25.3117 42.4775 25.3294Z" fill="white"/>
<path d="M37.7958 23.2428C37.8524 23.2342 37.9043 23.2303 37.9558 23.2303C38.6513 23.2303 39.2748 23.9129 39.4382 24.8532C39.4546 24.9563 39.4649 25.059 39.4695 25.1604C39.5147 25.1374 39.5606 25.1159 39.6074 25.0959C39.6304 24.9329 39.6415 24.78 39.6415 24.6266C39.6415 23.4091 38.9966 22.3806 38.2335 22.3806C37.5835 22.3806 37.0359 23.0965 36.8798 24.0634C37.0575 23.6224 37.382 23.3115 37.7958 23.2428Z" fill="white"/>
<path d="M50.8913 47.7992C51.0661 47.0578 51.4139 45.1648 51.0847 42.875C50.6686 39.9809 46.5964 30.9693 45.8956 29.9631C45.4869 30.0202 44.4007 30.6479 43.5198 31.1568C42.4983 31.747 41.4418 32.3575 40.7234 32.5649C40.5734 32.6073 40.4165 32.6283 40.2549 32.6283C39.205 32.6283 38.0687 31.7407 37.336 31.0415C37.2081 32.3983 36.485 34.1198 35.7026 35.0046C35.2085 35.5713 34.7668 36.8659 34.3397 38.118C33.9441 39.2774 33.535 40.4765 33.0342 41.2673C32.0209 42.8462 31.4396 45.913 32.177 47.6572C32.5338 48.5026 33.8288 49.501 34.9714 50.3817C36.3687 51.459 37.5754 52.3892 37.7085 53.3272C37.8638 54.4364 37.274 55.0511 36.6841 55.3426L38.1804 57.0547C38.4116 57.0898 38.9684 57.157 39.8409 57.157C40.8615 57.157 41.9943 57.0677 43.2072 56.8913C46.185 56.4502 48.259 53.9963 48.6691 53.4753C48.6713 52.785 48.6924 49.7137 48.8938 48.7535C48.9719 48.3836 49.2722 47.7647 50.4065 47.7647C50.5828 47.7644 50.7507 47.7799 50.8913 47.7992Z" fill="white"/>
<path d="M37.8972 28.7888C37.9556 29.0159 38.4725 29.5966 39.2763 30.124C39.3904 30.1972 39.4974 30.27 39.5979 30.3383C40.0438 30.6413 40.2421 30.7657 40.5626 30.7225C41.0345 30.6606 42.7731 29.6065 43.5156 29.1563L43.7004 29.0444C43.9769 28.876 44.1978 28.761 44.3754 28.6685C44.727 28.4856 44.7588 28.4561 44.7738 28.3893C44.7339 28.2859 44.4057 28.0091 43.7762 27.7927C43.5761 27.7211 43.2922 27.6076 42.9634 27.4764C42.2519 27.1923 41.2774 26.8036 40.8824 26.7337C40.8655 26.7305 40.8497 26.7295 40.8319 26.7295C40.4957 26.7295 39.8165 27.1513 39.1415 27.7789C38.8087 28.0793 38.1592 28.5862 37.8972 28.7888Z" fill="#E69629"/>
<path d="M31.9592 52.081C31.6668 51.5914 31.414 51.1683 31.2776 50.9575C30.7397 50.1202 29.8061 49.1849 29.3612 49.1849C29.3222 49.1849 29.3017 49.194 29.2884 49.2019C29.0509 49.3371 28.8513 49.7491 28.6581 50.1473C28.3912 50.6981 28.0886 51.3224 27.5297 51.661C27.1163 51.9118 26.4842 52.0489 25.8734 52.1817C25.4386 52.2761 24.4209 52.4969 24.3731 52.7032C24.3072 52.9814 24.3685 53.2688 24.4463 53.6325C24.5379 54.0617 24.6522 54.5957 24.5549 55.2513C24.4862 55.6625 24.3615 56.0552 24.2404 56.4351C24.0723 56.9635 23.8817 57.5629 24.0461 57.7471C24.2488 57.9261 25.4717 58.1239 26.3646 58.2685C27.487 58.4501 28.6475 58.6381 29.3582 58.9358L29.5466 59.0151C30.8196 59.5501 33.1891 60.546 34.3861 60.546C34.495 60.546 34.5878 60.5372 34.6628 60.5203C34.8692 60.3814 35.7438 59.7531 35.9081 58.9806C36.1326 57.985 35.2202 56.8238 34.6567 56.2202C34.0312 55.5485 32.8337 53.5442 31.9592 52.081Z" fill="#E69629"/>
<path d="M59.0165 54.4662L58.8706 54.3894C57.8686 53.8597 57.3418 52.4222 57.4116 51.3386C57.4246 51.139 57.3998 50.9842 57.3594 50.8656C57.1743 51.17 56.91 51.5545 56.596 51.8685C56.0624 52.4021 54.76 52.9778 53.5861 52.9778C53.1483 52.9778 52.7492 52.9007 52.4 52.7483C51.2283 52.2373 51.0686 50.772 51.0656 50.0374C51.0482 50.0422 51.0324 50.0479 51.0182 50.0545C50.9466 50.3077 51.016 51.1613 51.0628 51.7359C51.0878 52.0433 51.1136 52.3611 51.1289 52.6528C51.1952 53.9379 50.7859 56.1176 50.4307 57.7199C50.0935 59.2885 50.7211 60.3883 51.483 60.6258C51.5514 60.6476 51.6284 60.6583 51.7129 60.6583C52.4148 60.6583 53.5772 59.9318 54.6049 58.8503C55.335 58.0826 56.9601 57.2528 58.3939 56.5206C59.2022 56.1079 60.038 55.681 60.2755 55.464C60.3284 55.4147 60.3363 55.3872 60.3365 55.387C60.3215 55.1513 59.3734 54.6535 59.0165 54.4662Z" fill="#E69629"/>
<path d="M61.3892 53.5398C59.9816 52.9635 59.3794 52.1984 59.4377 51.0569C59.4977 49.7245 58.7418 48.7487 58.3828 48.3632C58.5996 47.5347 59.2334 44.6689 58.3835 42.1795C57.47 39.5152 54.6813 35.446 51.8038 31.4459C50.6259 29.8033 50.5702 28.0175 50.5058 25.9499C50.4441 23.9777 50.3745 21.7424 49.2747 19.2574C48.079 16.5516 45.6795 15 42.6914 15C40.9139 15 39.0892 15.5556 37.6851 16.5241C34.8098 18.5085 35.1899 22.8349 35.4414 25.6976C35.4759 26.0896 35.5083 26.46 35.5272 26.7761C35.6946 29.5799 35.5423 31.0578 35.3431 31.507C35.2142 31.8005 34.5797 32.6358 33.9081 33.5203C33.2136 34.4351 32.4262 35.4718 31.7809 36.4379C31.0108 37.6005 30.3892 39.3774 29.788 41.0958C29.3482 42.353 28.9327 43.5408 28.5282 44.2509C27.7616 45.6163 27.9524 46.8895 28.1116 47.478C27.8214 47.6795 27.4021 48.0767 27.0482 48.8248C26.6204 49.7375 25.7525 50.2279 23.9477 50.575C23.1183 50.7447 22.5464 51.0934 22.2474 51.6115C21.8122 52.3655 22.0493 53.3128 22.2655 53.9605C22.585 54.9121 22.3858 55.5146 22.0239 56.6085C21.9404 56.8608 21.8458 57.1467 21.75 57.4618C21.5991 57.9595 21.6536 58.4116 21.9115 58.8063C22.593 59.8481 24.582 60.2156 26.6295 60.4575C27.852 60.6026 29.19 61.0915 30.4841 61.5645C31.7521 62.0278 33.0633 62.5071 34.255 62.6525C34.4361 62.6753 34.6156 62.6866 34.7885 62.6866C36.588 62.6866 37.401 61.4927 37.6588 61.0022C38.3051 60.8703 40.5344 60.4479 42.832 60.3911C45.1259 60.3258 47.3454 60.7788 47.9741 60.9194C48.1718 61.2978 48.6929 62.1619 49.5235 62.6073C49.9801 62.8568 50.6155 62.9999 51.2662 62.9999C51.2664 62.9999 51.2662 62.9999 51.2664 62.9999C51.9613 62.9999 53.2835 62.8356 54.3299 61.7346C55.3736 60.6287 57.9814 59.2165 59.8856 58.1856C60.3106 57.9555 60.7081 57.7402 61.0566 57.546C62.1263 56.9531 62.71 56.1058 62.658 55.2216C62.6145 54.4868 62.1283 53.8425 61.3892 53.5398ZM44.0712 21.937C45.1081 21.937 45.9518 23.0109 45.9518 24.3309C45.9518 24.8802 45.8002 25.4042 45.5382 25.8208C45.608 25.5982 45.6458 25.3573 45.6458 25.1073C45.6458 24.0035 44.9455 23.1389 44.0514 23.1389C43.1776 23.1389 42.4667 24.0219 42.4667 25.1073C42.4667 25.1815 42.4704 25.2555 42.4772 25.3294C42.4309 25.3118 42.3858 25.2944 42.3418 25.2777C42.2412 24.973 42.1904 24.6554 42.1904 24.3309C42.1905 23.011 43.034 21.937 44.0712 21.937ZM40.8822 26.7341C41.2772 26.8038 42.2515 27.1927 42.9631 27.4768C43.292 27.608 43.5762 27.7215 43.7759 27.7931C44.4055 28.0094 44.7338 28.2863 44.7735 28.3897C44.7586 28.4565 44.7268 28.486 44.3752 28.6689C44.1976 28.7612 43.9768 28.8762 43.7002 29.0447L43.5154 29.1567C42.7729 29.6069 41.0343 30.6612 40.5624 30.7228C40.2418 30.766 40.0435 30.6415 39.5977 30.3387C39.4971 30.2702 39.3902 30.1975 39.2761 30.1243C38.4723 29.5968 37.9553 29.0162 37.897 28.7892C38.159 28.5867 38.8085 28.0797 39.1411 27.7794C39.8161 27.1517 40.4953 26.73 40.8315 26.73C40.8493 26.7297 40.8654 26.7309 40.8822 26.7341ZM38.2332 22.3803C38.9965 22.3803 39.6412 23.4088 39.6412 24.6263C39.6412 24.7799 39.6301 24.9326 39.6071 25.0956C39.5603 25.1156 39.5144 25.1373 39.4692 25.1601C39.4646 25.0586 39.4541 24.956 39.4379 24.8529C39.2746 23.9126 38.6509 23.23 37.9555 23.23C37.904 23.23 37.8523 23.2339 37.7955 23.2426C37.3818 23.3115 37.0572 23.6222 36.8793 24.063C37.0356 23.0961 37.5834 22.3803 38.2332 22.3803ZM35.908 58.9806C35.7437 59.7532 34.869 60.3814 34.6626 60.5203C34.5877 60.5372 34.495 60.546 34.386 60.546C33.189 60.546 30.8195 59.5501 29.5464 59.0152L29.3581 58.9359C28.6472 58.6379 27.4868 58.4502 26.3645 58.2685C25.4715 58.1239 24.2487 57.9261 24.046 57.7471C23.8816 57.5628 24.0722 56.9636 24.2403 56.4351C24.3613 56.0552 24.4863 55.6625 24.5547 55.2513C24.6519 54.5957 24.5378 54.0615 24.4462 53.6325C24.3685 53.2687 24.3071 52.9814 24.373 52.7032C24.4208 52.497 25.4385 52.2763 25.8732 52.1818C26.4843 52.0489 27.1164 51.9119 27.5296 51.661C28.0884 51.3225 28.3911 50.6982 28.658 50.1473C28.8512 49.7491 29.0508 49.3371 29.2883 49.2019C29.3017 49.1939 29.3221 49.185 29.3611 49.185C29.806 49.185 30.7396 50.1201 31.2775 50.9575C31.4139 51.1683 31.6667 51.5912 31.9591 52.081C32.8337 53.5443 34.0311 55.5485 34.6565 56.2201C35.2201 56.8239 36.1323 57.985 35.908 58.9806ZM48.8938 48.7533C48.6927 49.7136 48.6715 52.7849 48.6692 53.4751C48.2591 53.9962 46.185 56.45 43.2073 56.8912C41.9943 57.0674 40.8617 57.1569 39.841 57.1569C38.9685 57.1569 38.4117 57.0895 38.1805 57.0546L36.6842 55.3424C37.274 55.051 37.8639 54.4363 37.7086 53.3271C37.5754 52.3891 36.3688 51.4589 34.9714 50.3816C33.8289 49.5009 32.5339 48.5026 32.1771 47.657C31.4397 45.9131 32.021 42.8463 33.0343 41.2671C33.5351 40.4765 33.9441 39.2773 34.3398 38.1179C34.7669 36.8658 35.2086 35.5711 35.7027 35.0045C36.485 34.1197 37.208 32.3982 37.3361 31.0414C38.0687 31.7406 39.2051 32.6282 40.255 32.6282C40.4166 32.6282 40.5736 32.6071 40.7235 32.5647C41.4418 32.3573 42.4982 31.7469 43.5199 31.1567C44.4008 30.6478 45.487 30.0201 45.8957 29.963C46.5965 30.9693 50.6687 39.9809 51.0848 42.8749C51.414 45.1647 51.0662 47.0576 50.8914 47.7991C50.7506 47.7797 50.5829 47.7643 50.4067 47.7643C49.2723 47.7644 48.972 48.3835 48.8938 48.7533ZM60.2757 55.4643C60.0382 55.6813 59.2024 56.1083 58.394 56.521C56.9601 57.253 55.3349 58.0829 54.6051 58.8506C53.5774 59.9321 52.415 60.6586 51.7131 60.6586C51.6286 60.6586 51.5516 60.6479 51.4831 60.6262C50.7211 60.3887 50.0936 59.2887 50.4309 57.7202C50.7861 56.1177 51.1952 53.9383 51.129 52.6531C51.1137 52.3614 51.0879 52.0436 51.0629 51.7363C51.0161 51.1619 50.9468 50.3082 51.0184 50.0549C51.0325 50.0482 51.0483 50.0426 51.0657 50.0377C51.0687 50.7723 51.2283 52.2377 52.4002 52.7487C52.7494 52.901 53.1485 52.9782 53.5863 52.9782C54.7601 52.9782 56.0626 52.4024 56.5961 51.8688C56.9103 51.5549 57.1745 51.1704 57.3595 50.866C57.3999 50.9845 57.4249 51.1394 57.4117 51.3389C57.342 52.4224 57.8686 53.8599 58.8708 54.3897L59.0166 54.4664C59.3735 54.6536 60.3216 55.1515 60.3369 55.3874C60.3364 55.3874 60.3286 55.4152 60.2757 55.4643Z" fill="#1F1F1F"/>
</g>
<defs>
<clipPath id="clip0_119_26">
<rect width="47.7377" height="48" fill="white" transform="translate(15 15)"/>
</clipPath>
</defs>
</svg>
