<svg width="78" height="78" viewBox="0 0 78 78" fill="none" xmlns="http://www.w3.org/2000/svg">
<path d="M39.7775 60.75L38.607 60.3609C38.607 60.3609 38.7628 54.4234 36.6198 54.0062C35.217 52.3687 36.8271 -15.9016 41.9549 53.7734C40.982 54.2681 40.2375 55.1208 39.8773 56.1531C39.6842 57.6777 39.6507 59.2184 39.7775 60.75Z" fill="url(#paint0_linear_119_26)"/>
<path d="M40.4104 55.014C43.527 52.6621 45.9137 49.4718 47.2933 45.8138C48.6728 42.1559 48.9884 38.1806 48.2035 34.35C45.9123 24.2171 40.4868 20.8859 39.9023 19.614C39.398 18.822 38.9676 17.9852 38.6165 17.114L39.0482 45.3468C39.0482 45.3468 38.1535 53.975 40.4104 55.014Z" fill="url(#paint1_linear_119_26)"/>
<path d="M38.0116 55.3891C38.0116 55.3891 28.4713 48.875 29.023 37.3516C29.0745 33.8776 29.8691 30.4551 31.353 27.3153C32.837 24.1756 34.9758 21.3916 37.625 19.1516C37.9346 18.8879 38.1806 18.5573 38.3444 18.1847C38.5083 17.812 38.5858 17.407 38.5711 17C39.1649 18.2812 39.0683 36.1297 39.1307 38.2172C39.3722 46.3375 38.6802 53.8562 38.0116 55.3891Z" fill="url(#paint2_linear_119_26)"/>
<defs>
<linearGradient id="paint0_linear_119_26" x1="31.9091" y1="39.2692" x2="45.3694" y2="43.8255" gradientUnits="userSpaceOnUse">
<stop offset="0.231" stop-color="#999875"/>
<stop offset="0.563" stop-color="#9B9977"/>
<stop offset="0.683" stop-color="#A09F7E"/>
<stop offset="0.768" stop-color="#A9A889"/>
<stop offset="0.837" stop-color="#B7B69A"/>
<stop offset="0.896" stop-color="#C9C7B0"/>
<stop offset="0.948" stop-color="#DEDDCB"/>
<stop offset="0.994" stop-color="#F8F6EB"/>
<stop offset="1" stop-color="#FBF9EF"/>
</linearGradient>
<linearGradient id="paint1_linear_119_26" x1="36.8427" y1="16.9123" x2="42.8193" y2="54.1403" gradientUnits="userSpaceOnUse">
<stop stop-color="#48A547"/>
<stop offset="1" stop-color="#3F9143"/>
</linearGradient>
<linearGradient id="paint2_linear_119_26" x1="28.2024" y1="38.4922" x2="44.1716" y2="33.1575" gradientUnits="userSpaceOnUse">
<stop stop-color="#41A247"/>
<stop offset="0.352" stop-color="#4BA74B"/>
<stop offset="0.956" stop-color="#67B554"/>
<stop offset="1" stop-color="#69B655"/>
</linearGradient>
</defs>
</svg>
