<svg width="78" height="78" viewBox="0 0 78 78" fill="none" xmlns="http://www.w3.org/2000/svg">
<path d="M43.0812 19C42.7855 19 42.5109 19.0635 42.2574 19.1482C42.7961 19.5082 43.0918 19.9847 43.2397 20.5247C43.2503 20.5988 43.2713 20.6518 43.2819 20.7259C43.2925 20.7894 43.303 20.853 43.303 20.9165C43.3453 21.8483 43.0601 21.9647 42.8594 22.5153C42.5531 23.2247 42.6376 23.9871 43.0073 24.6012C43.039 24.6753 43.0812 24.76 43.134 24.8342C42.7327 22.1553 44.9613 21.753 45.3732 20.9165C45.4049 20.1859 44.8028 19.6988 44.3275 19.36C43.8734 19.0847 43.4615 19 43.0812 19ZM46.4399 19.6035C46.3977 19.8471 46.4294 19.7835 46.4188 19.9106C46.4083 19.9953 46.4083 20.1012 46.3977 20.1859C46.3766 20.2706 46.3555 20.3553 46.3238 20.44C46.3027 20.5247 46.271 20.6094 46.2393 20.6941C46.197 20.7788 46.1654 20.853 46.1231 20.9377C46.0914 20.98 46.0703 21.0224 46.0386 21.0647C46.0175 21.0965 45.9964 21.1283 45.9752 21.16C45.9224 21.2341 45.8696 21.3083 45.8168 21.3718C45.7534 21.4353 45.7006 21.5094 45.6267 21.5624C45.6267 21.573 45.6267 21.573 45.6267 21.573C45.5633 21.6259 45.5 21.6894 45.426 21.7424C45.2042 21.9118 44.9507 22.0389 44.7184 22.1977C44.6444 22.2506 44.5705 22.293 44.5071 22.3565C44.4332 22.4095 44.3698 22.4624 44.3065 22.5259C44.2325 22.5895 44.1797 22.653 44.1163 22.7271C44.0635 22.7906 44.0002 22.8647 43.9579 22.9389C43.9051 23.013 43.8523 23.0871 43.81 23.1612C43.7678 23.2459 43.7361 23.32 43.6939 23.4048C43.6622 23.4895 43.6305 23.5636 43.6094 23.6483C43.5777 23.7436 43.5566 23.8283 43.5354 23.913C43.5249 23.9554 43.5249 24.0083 43.5143 24.0506C43.5037 24.093 43.5037 24.1353 43.4932 24.1777C43.4932 24.2624 43.4826 24.3577 43.4826 24.4424C43.4826 24.5059 43.4826 24.5695 43.4932 24.633C43.4932 24.7177 43.5038 24.8024 43.5249 24.8977C43.5355 24.9824 43.5566 25.0671 43.5777 25.1518C43.6094 25.2365 43.6305 25.3212 43.6622 25.4059C43.6833 25.4589 43.715 25.5118 43.7361 25.5542L41.3069 24.6118C40.895 24.4953 40.4936 24.3895 40.0817 24.2942C39.8599 24.2412 39.6381 24.1883 39.4163 24.1353C38.7826 24.0083 38.1383 23.913 37.494 23.8495C37.4729 23.8495 37.4623 23.8389 37.4412 23.8389C36.8075 23.7753 36.1843 23.7436 35.5506 23.7436C35.0859 23.7436 34.6212 23.7647 34.167 23.7965C33.5227 23.8389 32.8784 23.9236 32.2341 24.0294C32.0757 24.0506 31.9173 24.0824 31.7589 24.1142C31.4314 24.1777 31.1146 24.2518 30.8083 24.3259C30.6498 24.3683 30.4914 24.4106 30.333 24.453C30.1746 24.5165 30.0267 24.5906 29.8788 24.6542C29.7626 24.7071 29.6465 24.76 29.5303 24.813C29.5092 24.8236 29.488 24.8236 29.4775 24.8341C29.3718 24.8871 29.2768 24.9294 29.1817 24.9824C29.15 24.993 29.1289 25.0035 29.1078 25.0141C28.9916 25.0671 28.8754 25.1306 28.7804 25.1836C28.7064 25.2153 28.6325 25.2577 28.5691 25.2894C28.5375 25.3106 28.4952 25.3318 28.4741 25.3424C28.379 25.3953 28.284 25.4483 28.1995 25.5012C28.1044 25.5542 28.0199 25.6071 27.946 25.66C27.872 25.713 27.7981 25.7553 27.7347 25.8083C27.7242 25.8189 27.7136 25.8189 27.7031 25.8294C27.6397 25.8718 27.5657 25.9247 27.5024 25.9777C27.5024 25.9777 27.4918 25.9883 27.4813 25.9988C27.4285 26.0412 27.3756 26.0835 27.3228 26.1259C27.3017 26.1365 27.2806 26.1576 27.2595 26.1683C27.2067 26.2106 27.1538 26.2636 27.101 26.3059C27.0905 26.3271 27.0694 26.3377 27.0588 26.3483C26.9954 26.4118 26.932 26.4647 26.8687 26.5283C26.8581 26.5283 26.8581 26.5389 26.8476 26.5494C26.7842 26.6024 26.7208 26.6659 26.6574 26.7294C26.6469 26.74 26.6469 26.7506 26.6363 26.7506C26.5835 26.8035 26.5307 26.8565 26.4779 26.92C26.4568 26.9412 26.4251 26.9624 26.404 26.9835C26.3512 27.0471 26.2878 27.1106 26.2244 27.1741C26.2138 27.1953 26.1927 27.2059 26.1821 27.2271C26.0977 27.3118 26.0237 27.3965 25.9392 27.4812C25.9286 27.4918 25.9181 27.5024 25.9075 27.513C25.7385 27.693 25.559 27.873 25.3689 28.0318C25.1788 28.2012 24.9781 28.36 24.7774 28.4977C24.5662 28.6459 24.3655 28.773 24.1437 28.9C23.9324 29.0165 23.7106 29.1224 23.4783 29.2177C23.2565 29.313 23.0241 29.3977 22.7918 29.4718C22.3481 29.5671 21.894 29.7471 21.5032 29.7789C21.4187 29.7789 21.3236 29.8 21.2391 29.8106C21.1441 29.8318 21.0596 29.853 20.9751 29.8742C20.8906 29.9059 20.8061 29.9377 20.7216 29.9694C20.6371 30.0012 20.5526 30.0436 20.4681 30.0859C20.3942 30.1389 20.3097 30.1812 20.2358 30.2342C20.1618 30.2871 20.0879 30.3506 20.0245 30.4142C19.9506 30.4671 19.8766 30.5412 19.8133 30.6047C19.7499 30.6789 19.6865 30.7424 19.6337 30.8165C19.5809 30.9012 19.5175 30.9753 19.4753 31.06C19.4225 31.1342 19.3697 31.2189 19.3274 31.3036C19.2852 31.3989 19.2429 31.4836 19.2112 31.5789C19.1796 31.6636 19.1479 31.7589 19.1162 31.8542C19.0951 31.9389 19.0739 32.0236 19.0634 32.1083C19.0634 32.1189 19.0528 32.1294 19.0528 32.14C19.0317 32.2353 19.0317 32.3624 19.0211 32.4259C19.0105 32.5001 19 32.5636 19 32.6377C19 32.6801 19 32.733 19.0106 32.7753C19.0212 32.8495 19.0317 32.913 19.0528 32.9765C19.074 33.0401 19.0951 33.1036 19.1268 33.1671C19.1268 33.1777 19.1268 33.1777 19.1268 33.1777C19.1585 33.2413 19.2007 33.3048 19.243 33.3683C19.2852 33.4318 19.3275 33.4954 19.3803 33.5589C19.4331 33.6118 19.4964 33.6754 19.5598 33.7283C19.6232 33.7918 19.6866 33.8448 19.7605 33.8977C20.014 34.1201 20.0774 34.1942 20.4048 34.3636C20.4576 34.3954 20.5104 34.4166 20.5738 34.4483C20.5843 34.4483 20.5949 34.4589 20.6055 34.4589C20.6055 34.4801 20.6055 34.4907 20.616 34.5119C20.6266 34.5966 20.6477 34.6813 20.6688 34.766C20.69 34.8613 20.7217 34.946 20.7533 35.0201C20.785 35.0836 20.8062 35.1472 20.8378 35.2107C20.8484 35.2319 20.8589 35.2531 20.8695 35.2636C20.9118 35.3483 20.954 35.4225 20.9963 35.4966C21.0491 35.5707 21.1019 35.6448 21.1547 35.7189C21.2075 35.7825 21.2709 35.8566 21.3342 35.9201C21.3976 35.9836 21.461 36.0366 21.5349 36.1001C21.5349 36.1001 21.5455 36.1107 21.556 36.1107C21.6194 36.1637 21.6828 36.2166 21.7462 36.259C21.8201 36.3119 21.894 36.3543 21.9785 36.3966C22.0525 36.439 22.1369 36.4813 22.2214 36.5131C22.2848 36.5449 22.3587 36.566 22.4327 36.5872C22.4433 36.5978 22.4538 36.5978 22.4749 36.6084C22.5172 36.619 22.57 36.6295 22.6122 36.6401C22.5806 37.2119 22.57 37.7519 22.6545 37.9425C22.7496 38.1543 23.2143 37.5084 23.679 36.7672C23.6157 37.4978 23.5734 38.3554 23.679 38.6096C23.7952 38.8743 24.4289 38.0484 24.9781 37.1378C32.4666 35.4013 39.3002 40.5896 40.0184 47.9167C39.8811 46.7731 38.4764 46.1378 37.8321 46.2967C37.5152 47.0802 36.9766 48.0861 36.1105 48.7108C36.1844 48.012 36.1527 47.292 36.0049 46.5931C35.7725 47.5673 35.3183 48.4779 34.6952 49.2614C33.6918 49.3355 32.6884 48.8484 32.1603 48.1179C32.118 48.0861 32.1075 48.0226 32.0758 47.9802C32.0441 47.9061 32.0124 47.832 31.9913 47.7579C31.9596 47.6837 31.9385 47.6096 31.9279 47.5355C31.9173 47.4614 31.9173 47.3873 31.9173 47.3026C31.9173 47.2496 31.9173 47.1967 31.9173 47.1437C31.9279 47.0696 31.949 46.9955 31.9702 46.9214C31.9913 46.8473 32.0124 46.7731 32.0441 46.699C32.0864 46.6249 32.118 46.5508 32.1708 46.4767C32.3504 45.9684 32.3504 45.5555 32.023 45.312C31.9596 45.2696 31.8962 45.2378 31.8223 45.2061C31.78 45.1955 31.7272 45.1743 31.685 45.1637C31.6533 45.1531 31.6322 45.1425 31.6005 45.1319C31.5266 45.1108 31.4526 45.0896 31.3787 45.079C31.3048 45.0578 31.2308 45.0472 31.1569 45.0472C31.083 45.0366 30.9985 45.0261 30.9245 45.0261C30.8717 45.0261 30.8189 45.0367 30.7661 45.0367C30.6816 45.0367 30.6077 45.0473 30.5337 45.0684C30.4598 45.0791 30.3859 45.0896 30.3119 45.1108C30.238 45.132 30.1641 45.1532 30.0901 45.1849C30.0162 45.2167 29.9528 45.2485 29.8789 45.2802C29.8155 45.312 29.7521 45.3543 29.6782 45.3861C27.2173 46.9955 28.6854 50.765 30.3647 51.8556C29.731 51.972 29.0867 52.1097 28.9072 52.2473C28.8966 52.2579 28.8861 52.2685 28.8861 52.2685C29.3402 52.5438 29.8155 52.7767 30.3119 52.9779C30.9879 53.2003 31.7061 53.4014 32.023 53.4861V53.4967C32.8996 53.6767 33.7868 53.7403 34.6846 53.6873C39.3636 53.3591 43.1976 49.7908 43.8947 45.0896C43.9158 45.1849 43.9369 45.2696 43.958 45.3649C43.9897 45.5555 44.032 45.7567 44.0531 45.9579C44.0531 45.9579 44.0531 45.9579 44.0531 45.9685C44.0742 46.0638 44.0848 46.1591 44.0953 46.2438C44.0953 46.2649 44.0953 46.2755 44.0953 46.2862C44.1059 46.3814 44.1165 46.4767 44.1165 46.5614C44.127 46.6779 44.1376 46.7944 44.1376 46.9109C44.1376 46.9638 44.1376 47.0167 44.1376 47.0803C44.1376 47.1332 44.1481 47.1967 44.1481 47.2497C44.1481 47.3132 44.1376 47.3767 44.1376 47.4403C44.1376 47.4932 44.1376 47.5462 44.1376 47.5885C44.1376 47.6626 44.127 47.7262 44.127 47.8003C44.127 47.8426 44.127 47.885 44.1164 47.9379C44.1164 48.0121 44.1058 48.0862 44.1058 48.1709C44.0952 48.2026 44.0952 48.2344 44.0952 48.2662C44.0847 48.3509 44.0741 48.425 44.0635 48.5097C44.0635 48.5415 44.0635 48.5732 44.053 48.605C44.0424 48.7109 44.0213 48.8062 44.0107 48.9121V48.9227V48.9333C43.9896 49.0286 43.9684 49.1344 43.9473 49.2297C43.9473 49.2403 43.9473 49.2509 43.9473 49.2615C43.9262 49.3568 43.9051 49.4521 43.884 49.5474C43.884 49.558 43.8734 49.5792 43.8734 49.5898C43.8523 49.6851 43.8311 49.7803 43.7995 49.8756C43.7995 49.8863 43.7995 49.8968 43.7995 49.9074C43.7678 50.0133 43.7361 50.1086 43.715 50.2039C43.7044 50.2145 43.7044 50.225 43.7044 50.225C43.6727 50.3309 43.641 50.4368 43.6093 50.5427C43.5671 50.6486 43.5354 50.7439 43.4931 50.8498C43.4509 50.9556 43.4192 51.0615 43.377 51.1568C43.3347 51.2627 43.2925 51.358 43.2502 51.4639H43.2396C43.1974 51.5592 43.1551 51.6651 43.1023 51.7604C43.0917 51.7921 43.0812 51.8133 43.0706 51.8345C43.0601 51.8451 43.0601 51.8556 43.0495 51.8662C42.363 53.2533 41.349 54.471 40.0816 55.4239C39.9971 55.4768 39.9126 55.5404 39.8281 55.6039C39.807 55.6251 39.7753 55.6357 39.7542 55.6568C39.6803 55.7098 39.6063 55.7627 39.5218 55.8157L39.5535 55.8792H39.5641C39.712 55.858 39.8598 55.8368 40.0077 55.8157H40.0183C40.2929 55.7733 40.5675 55.7204 40.8421 55.6674C40.916 55.6568 41.0005 55.6357 41.0745 55.6145C41.1273 55.6039 41.1695 55.5933 41.2223 55.5827C41.2963 55.5721 41.3702 55.551 41.4441 55.5404C41.5075 55.5192 41.5709 55.5086 41.6342 55.4874C42.6904 55.2333 43.715 54.8839 44.6972 54.4709C43.0179 56.7686 40.7682 58.6216 38.1382 59.8392C39.3529 59.7545 40.5675 59.5533 41.7399 59.2145C45.9963 57.9545 49.5769 55.0851 51.7209 51.2203C51.2879 53.6662 50.3162 55.9957 48.8798 58.0286C49.9043 57.351 50.8443 56.5674 51.6998 55.678C54.0657 53.2003 55.6183 50.0556 56.1464 46.6779C56.5055 48.3509 56.6111 50.0768 56.4527 51.7815C64.0785 41.1191 57.0864 30.0649 54.1608 27.1531C54.1502 27.1319 54.1396 27.1213 54.1396 27.1002C54.1291 27.1108 54.1291 27.1108 54.1291 27.1213C54.1291 27.1107 54.1291 27.1107 54.1185 27.1002C54.1185 27.2272 54.1079 27.3543 54.0974 27.4813C54.0657 27.7249 54.034 27.9578 53.9918 28.1907C53.9389 28.4237 53.8756 28.6566 53.8122 28.8896C53.7383 29.1119 53.6538 29.3449 53.5587 29.5672C53.4637 29.779 53.358 30.0013 53.2419 30.2131C53.1257 30.4143 52.9989 30.6261 52.8616 30.8166C52.7243 31.0178 52.5764 31.2084 52.4286 31.3884C52.2701 31.579 52.1012 31.7484 51.9322 31.9178C51.8265 32.0131 51.7315 32.0978 51.6259 32.1825C51.5414 32.2567 51.4674 32.3202 51.3829 32.3943C51.1928 32.5425 51.0027 32.6802 50.7915 32.8072C50.5908 32.9343 50.3796 33.0614 50.1683 33.1673C49.9465 33.2731 49.7247 33.3684 49.5029 33.4637C49.2811 33.5484 49.0487 33.6225 48.8164 33.6861C48.584 33.7496 48.3411 33.8026 48.1087 33.8449C47.8658 33.8873 47.6229 33.9084 47.3905 33.9296C47.2215 33.9402 47.0525 33.9508 46.8835 33.9508C46.6406 33.9508 46.3977 33.9296 46.1653 33.9084C45.9224 33.8872 45.6795 33.8555 45.4471 33.8025C45.2042 33.7601 44.9718 33.6966 44.7395 33.6225H44.7289C44.9612 33.6014 45.1936 33.5801 45.426 33.5378C45.6689 33.4954 45.9013 33.4425 46.1336 33.379C46.366 33.3155 46.5984 33.2413 46.8202 33.1566C47.0525 33.0719 47.2743 32.966 47.4856 32.8602C47.7074 32.7543 47.908 32.6378 48.1193 32.5107C48.32 32.3731 48.5206 32.2354 48.7107 32.0872C48.9009 31.939 49.0804 31.7802 49.2494 31.6107C49.429 31.4519 49.5874 31.2719 49.7458 31.0919C49.9043 30.9013 50.0521 30.7107 50.1894 30.5201C50.2105 30.4884 50.2317 30.446 50.2528 30.4143C50.3584 30.2448 50.464 30.0754 50.5591 29.906C50.6753 29.6943 50.7809 29.4825 50.876 29.2601C50.971 29.0378 51.0555 28.8154 51.1294 28.5825C51.2034 28.3601 51.2562 28.1272 51.309 27.8942C51.3513 27.6507 51.3935 27.4178 51.4146 27.1848C51.4357 26.9413 51.4569 26.6978 51.4569 26.4648C51.4569 26.2954 51.4463 26.126 51.4358 25.9566C51.4147 25.7131 51.383 25.4801 51.3513 25.2472C51.309 25.0036 51.2562 24.7707 51.1928 24.5377C51.1189 24.3154 51.045 24.0824 50.9605 23.8601C50.876 23.6377 50.7704 23.4154 50.6647 23.2036C50.5486 22.9919 50.4324 22.7801 50.3056 22.5789C50.1683 22.3777 50.031 22.1871 49.8832 21.9966C49.7247 21.8165 49.5663 21.6365 49.3973 21.4565C49.3128 21.3718 49.2178 21.2765 49.1227 21.1918C48.6474 20.8212 48.151 20.4718 47.6546 20.1542C47.5807 20.1118 47.5173 20.0801 47.4433 20.0483C47.0948 19.8259 46.7674 19.7094 46.4399 19.6035Z" fill="#E0234E"/>
</svg>
