<svg width="78" height="78" viewBox="0 0 78 78" fill="none" xmlns="http://www.w3.org/2000/svg">
<path fill-rule="evenodd" clip-rule="evenodd" d="M59.6 28.1333L38.8 16L18 28.1333V49.1714L21.2203 51.0498L27.8004 48.3874C29.6135 47.6539 30.8001 45.8936 30.8001 43.9378V27.4523H34.0001V43.9378C34.0001 47.1976 32.0224 50.1311 29.0007 51.3538L24.7144 53.0882L38.8 61.3045L59.6 49.1714V28.1333ZM37.2 33.8523C37.2 30.3177 40.0654 27.4523 43.6 27.4523H47.3334C50.5734 27.4523 53.2 30.0789 53.2 33.319V33.8523H50V33.319C50 31.8463 48.8061 30.6523 47.3334 30.6523H43.6C41.8327 30.6523 40.4 32.085 40.4 33.8523C40.4 35.6196 41.8327 37.0523 43.6 37.0523H46.8C50.3347 37.0523 53.2 39.9177 53.2 43.4523C53.2 46.9871 50.3347 49.8523 46.8 49.8523H43.6C40.0654 49.8523 37.2 46.9871 37.2 43.4523H40.4C40.4 45.2196 41.8327 46.6523 43.6 46.6523H46.8C48.5674 46.6523 50 45.2196 50 43.4523C50 41.685 48.5674 40.2523 46.8 40.2523H43.6C40.0654 40.2523 37.2 37.387 37.2 33.8523Z" fill="#1C9B38"/>
</svg>
