<svg width="78" height="78" viewBox="0 0 78 78" fill="none" xmlns="http://www.w3.org/2000/svg">
<path d="M30.782 41.3159C28.9946 41.8244 27.822 42.716 27.0495 43.6069C27.7894 42.9578 28.7804 42.3621 30.1173 41.9822C31.4846 41.5937 32.6512 41.5965 33.615 41.783V41.0274C32.7928 40.952 31.8501 41.0121 30.782 41.3159ZM26.9678 34.964L20.3298 36.7172C20.3298 36.7172 20.4508 36.8885 20.6748 37.1171L26.303 35.6303C26.303 35.6303 26.2232 36.6606 25.5306 37.5822C26.8407 36.5885 26.9678 34.964 26.9678 34.964ZM32.5242 50.6033C23.1828 53.1256 18.2406 42.2729 16.7443 36.6398C16.0529 34.0397 15.7512 32.0705 15.6707 30.7997C15.6621 30.6677 15.6661 30.5565 15.6754 30.4545C15.1908 30.4839 14.9588 30.7364 15.006 31.4661C15.0864 32.7362 15.3882 34.7054 16.0795 37.3063C17.5752 42.9385 22.5181 53.7912 31.8596 51.269C33.8929 50.7199 35.4204 49.7197 36.5671 48.4429C35.5102 49.3998 34.1873 50.1535 32.5242 50.6033ZM34.2797 28.322V28.9885H37.9438C37.8686 28.7525 37.7929 28.5399 37.7177 28.322H34.2797Z" fill="#2D4552"/>
<path d="M38.7626 33.811C40.4104 34.2802 41.2819 35.4383 41.7425 36.4633L43.5798 36.9864C43.5798 36.9864 43.3292 33.3993 40.0926 32.4777C37.0648 31.6152 35.2016 34.1642 34.9749 34.494C35.8557 33.865 37.1419 33.3499 38.7626 33.811ZM53.3879 36.4799C50.3573 35.6136 48.4948 38.1678 48.2714 38.493C49.1529 37.8647 50.4385 37.3495 52.0584 37.8127C53.7036 38.2825 54.5744 39.4393 55.0364 40.4649L56.8764 40.99C56.8764 40.99 56.6217 37.4022 53.3879 36.4799ZM51.5625 45.9379L36.2785 41.6544C36.2785 41.6544 36.444 42.4954 37.0788 43.5843L49.9473 47.1908C51.0067 46.5763 51.5625 45.9379 51.5625 45.9379ZM40.9661 55.158C28.8641 51.9053 30.3271 36.4473 32.2854 29.1223C33.0917 26.1036 33.9206 23.8599 34.608 22.3559C34.1979 22.2713 33.8582 22.4878 33.5225 23.1722C32.7926 24.6562 31.8593 27.0726 30.956 30.4551C28.9983 37.78 27.5353 53.2374 39.6367 56.4902C45.3407 58.0221 49.7843 55.6938 53.0968 52.0373C49.9526 54.8922 45.9383 56.4928 40.9661 55.158Z" fill="#2D4552"/>
<path d="M34.2795 46.9808V43.8615L25.6342 46.3191C25.6342 46.3191 26.273 42.598 30.7818 41.3158C32.1491 40.9273 33.3158 40.93 34.2795 41.1166V28.322H38.6083C38.137 26.8619 37.681 25.7378 37.2981 24.9568C36.6646 23.664 36.0152 24.521 34.5409 25.7572C33.5025 26.6268 30.8782 28.482 26.9291 29.5488C22.9799 30.6163 19.7872 30.3332 18.4551 30.102C16.5666 29.7754 15.5788 29.3596 15.6712 30.7996C15.7516 32.0697 16.0534 34.039 16.7448 36.6398C18.2404 42.2721 23.1833 53.1249 32.5248 50.6026C34.9649 49.9435 36.6872 48.6407 37.881 46.9801H34.2795V46.9808ZM20.329 36.7171L26.9676 34.9639C26.9676 34.9639 26.7741 37.5242 24.2854 38.1819C21.796 38.8389 20.329 36.7171 20.329 36.7171Z" fill="#E2574C"/>
<path d="M59.2642 28.47C57.5386 28.7733 53.3986 29.1511 48.2823 27.7763C43.1645 26.4023 39.769 23.9993 38.4237 22.8697C36.5166 21.2684 35.6777 20.1555 34.8522 21.8388C34.1223 23.3235 33.1889 25.7399 32.2855 29.1224C30.328 36.4473 28.8649 51.9048 40.9662 55.1575C53.065 58.4074 59.5061 44.2866 61.4638 36.9611C62.3672 33.5792 62.7633 31.0183 62.8724 29.367C62.9966 27.4965 61.715 28.0395 59.2642 28.47ZM34.9505 34.5302C34.9505 34.5302 36.8576 31.5567 40.0921 32.4783C43.3286 33.4 43.5793 36.9871 43.5793 36.9871L34.9505 34.5302ZM42.8461 47.8732C37.1568 46.2025 36.2793 41.6544 36.2793 41.6544L51.5627 45.938C51.5627 45.9373 48.4777 49.5231 42.8461 47.8732ZM48.2497 38.5264C48.2497 38.5264 50.1541 35.555 53.388 36.4793C56.6218 37.4023 56.8765 40.9894 56.8765 40.9894L48.2497 38.5264Z" fill="#2EAD33"/>
<path d="M31.2585 44.7205L25.6343 46.3185C25.6343 46.3185 26.2453 42.8294 30.3884 41.4467L27.2037 29.4651L26.9285 29.5489C22.9794 30.6166 19.7867 30.3333 18.4546 30.1021C16.5661 29.7756 15.5783 29.3597 15.6707 30.7999C15.7512 32.07 16.053 34.0391 16.7443 36.64C18.2399 42.2722 23.1828 53.125 32.5242 50.6027L32.7994 50.5161L31.2585 44.7205ZM20.3291 36.7174L26.9678 34.964C26.9678 34.964 26.7743 37.5243 24.2856 38.182C21.7962 38.839 20.3291 36.7174 20.3291 36.7174Z" fill="#D65348"/>
<path d="M43.1027 47.9358L42.8454 47.8731C37.1561 46.2025 36.2786 41.6544 36.2786 41.6544L44.1596 43.8628L48.3321 27.7896L48.2816 27.7763C43.1639 26.4023 39.7685 23.9993 38.423 22.8697C36.5159 21.2684 35.677 20.1555 34.8515 21.8388C34.1223 23.3235 33.1889 25.7399 32.2855 29.1224C30.328 36.4473 28.8649 51.9048 40.9662 55.1573L41.2142 55.2134L43.1027 47.9358ZM34.9505 34.5302C34.9505 34.5302 36.8576 31.5567 40.0921 32.4783C43.3286 33.4 43.5793 36.9871 43.5793 36.9871L34.9505 34.5302Z" fill="#1D8D22"/>
<path d="M31.545 44.6385L30.0368 45.0676C30.3931 47.0814 31.0212 49.0139 32.0069 50.7212C32.1785 50.6832 32.3487 50.6506 32.5235 50.6026C32.9815 50.4787 33.4062 50.3253 33.8151 50.158C32.7136 48.5194 31.985 46.6322 31.545 44.6385ZM30.9561 30.4552C30.181 33.3552 29.4876 37.5295 29.6785 41.7163C30.0201 41.5677 30.381 41.4292 30.7819 41.3152L31.0611 41.2526C30.7207 36.7804 31.4565 32.2231 32.2855 29.1224C32.4956 28.338 32.7063 27.6084 32.9163 26.928C32.578 27.1438 32.2137 27.365 31.7989 27.5929C31.5191 28.4587 31.2366 29.4049 30.9561 30.4552Z" fill="#C04B41"/>
</svg>
