<svg width="78" height="78" viewBox="0 0 78 78" fill="none" xmlns="http://www.w3.org/2000/svg">
<path d="M59.2602 43.6894C59.0116 42.9323 58.3603 42.4049 57.5179 42.2783C57.1207 42.2187 56.6658 42.2441 56.1275 42.3557C55.1894 42.5503 54.4933 42.6244 53.9853 42.6388C55.9027 39.3837 57.4618 35.6716 58.3594 32.1773C59.8107 26.5273 59.0352 23.9534 58.1289 22.7891C55.7304 19.7075 52.231 18.052 48.0091 18.0012C45.7571 17.9736 43.7799 18.4207 42.7486 18.7421C41.7883 18.5719 40.7557 18.4767 39.6723 18.4591C37.6416 18.4266 35.8472 18.8717 34.314 19.7865C33.465 19.498 32.1029 19.0911 30.5296 18.8314C26.8294 18.2206 23.8472 18.6966 21.666 20.246C19.0246 22.1221 17.8 25.3816 18.0265 29.9341C18.0984 31.3795 18.9026 35.7771 20.1687 39.9479C20.8963 42.345 21.6723 44.3358 22.4749 45.8652C23.6132 48.0339 24.8311 49.3111 26.1984 49.7697C26.9649 50.0265 28.3573 50.2062 29.822 48.98C30.0076 49.2059 30.2551 49.4305 30.5839 49.6391C31.0013 49.9038 31.5118 50.1201 32.0214 50.2483C33.8586 50.7101 35.5795 50.5946 37.0475 49.9474C37.0565 50.2099 37.0635 50.4607 37.0695 50.6773C37.0792 51.0287 37.0888 51.3731 37.1017 51.6953C37.1886 53.8737 37.336 55.5675 37.7727 56.7525C37.7967 56.8178 37.8289 56.9171 37.863 57.0224C38.0808 57.6932 38.4452 58.816 39.372 59.6955C40.3319 60.6064 41.4929 60.8858 42.5561 60.8857C43.0894 60.8857 43.5982 60.8154 44.0444 60.7192C45.6353 60.3765 47.4419 59.8542 48.7488 57.9831C49.9844 56.2142 50.5851 53.5501 50.6938 49.352C50.7078 49.2334 50.7209 49.1201 50.7334 49.012C50.7418 48.9391 50.7505 48.8646 50.7592 48.7902L51.0503 48.816L51.1253 48.8211C52.7456 48.8953 54.7267 48.5498 55.9434 47.9815C56.9048 47.5329 59.9856 45.8976 59.2602 43.6894Z" fill="black"/>
<path d="M56.49 44.119C51.6725 45.1182 51.3413 43.4781 51.3413 43.4781C56.4278 35.8891 58.5541 26.2559 56.7191 23.8983C51.7132 17.467 43.0476 20.5086 42.9029 20.5876L42.8564 20.5959C41.9046 20.3973 40.8394 20.2789 39.6423 20.2593C37.4624 20.2234 35.8089 20.8339 34.5542 21.7906C34.5542 21.7906 19.0956 15.3873 19.8146 29.844C19.9676 32.9196 24.1986 53.1151 29.2453 47.0151C31.0899 44.7845 32.8721 42.8985 32.8721 42.8985C33.7573 43.4898 34.817 43.7914 35.928 43.6831L36.0143 43.6094C35.9875 43.8864 35.9997 44.1572 36.0489 44.4779C34.7488 45.9385 35.1308 46.1949 32.5318 46.7328C29.902 47.2778 31.4469 48.248 32.4556 48.5015C33.6784 48.809 36.5074 49.2446 38.4189 46.554L38.3427 46.861C38.8521 47.2712 39.2098 49.5295 39.1498 51.5766C39.0899 53.6238 39.0499 55.0293 39.4512 56.1271C39.8526 57.2249 40.2527 59.6949 43.6692 58.9588C46.5241 58.3436 48.0034 56.7495 48.2093 54.0905C48.3553 52.2 48.6858 52.4795 48.7067 50.7894L48.9718 49.9892C49.2775 47.4266 49.0203 46.5999 50.7792 46.9844L51.2066 47.0222C52.5012 47.0814 54.1955 46.8128 55.1899 46.3481C57.3311 45.3489 58.6011 43.6807 56.4898 44.119H56.49Z" fill="#336791"/>
<path d="M35.4591 31.2194C35.025 31.1586 34.6318 31.2149 34.4329 31.3662C34.3209 31.4515 34.2863 31.5502 34.277 31.6181C34.252 31.7981 34.3775 31.9971 34.4545 32.0997C34.6725 32.3903 34.991 32.59 35.3063 32.634C35.352 32.6403 35.3974 32.6434 35.4426 32.6434C35.9684 32.6434 36.4463 32.2319 36.4884 31.928C36.5411 31.5476 35.9917 31.2939 35.4591 31.2194Z" fill="white"/>
<path d="M49.841 31.2314C49.7997 30.9331 49.2717 30.8481 48.7708 30.9181C48.2707 30.9882 47.7856 31.2152 47.8261 31.5141C47.8587 31.7465 48.2759 32.1434 48.7701 32.1433C48.8118 32.1433 48.8539 32.1405 48.8964 32.1345C49.2262 32.0886 49.4682 31.878 49.5831 31.7566C49.7583 31.5717 49.8595 31.3654 49.841 31.2314Z" fill="white"/>
<path d="M58.093 44.0054C57.9093 43.4468 57.3181 43.2671 56.3357 43.4711C53.4191 44.0763 52.3746 43.6571 52.0316 43.4031C54.2987 39.9304 56.1636 35.7329 57.1697 31.8164C57.6464 29.9612 57.9097 28.2383 57.9311 26.8341C57.9549 25.2926 57.6939 24.16 57.1554 23.4681C54.9843 20.6788 51.7981 19.1826 47.9411 19.1415C45.2895 19.1115 43.0493 19.7939 42.6149 19.9857C41.7003 19.757 40.7032 19.6166 39.6178 19.5987C37.6272 19.5663 35.9067 20.0455 34.4821 21.0222C33.8633 20.7907 32.2641 20.2387 30.3086 19.922C26.9274 19.3745 24.2408 19.7893 22.3234 21.155C20.0356 22.7848 18.9794 25.698 19.1841 29.8136C19.253 31.1983 20.0375 35.4579 21.2759 39.5372C22.9058 44.9063 24.6775 47.9459 26.5418 48.571C26.7599 48.6442 27.0116 48.6955 27.289 48.6955C27.9691 48.6955 28.8027 48.3872 29.6702 47.3386C31.1111 45.5956 32.4564 44.1351 32.9523 43.6044C33.6852 44 34.4901 44.2208 35.3137 44.2429C35.3151 44.2646 35.3173 44.2863 35.3192 44.3078C35.154 44.5049 35.0185 44.6775 34.903 44.825C34.3325 45.5532 34.2137 45.7047 32.3772 46.085C31.8549 46.1934 30.4673 46.4809 30.447 47.4588C30.4249 48.5272 32.087 48.976 32.2765 49.0235C32.9364 49.1897 33.5722 49.2716 34.1785 49.2716C35.6532 49.2715 36.9508 48.7842 37.9879 47.8414C37.9559 51.6505 38.1139 55.4039 38.5688 56.5475C38.9412 57.4836 39.8513 59.7716 42.7261 59.7714C43.1478 59.7714 43.6122 59.7221 44.1229 59.6121C47.1231 58.9652 48.4259 57.632 48.9299 54.6926C49.1996 53.1217 49.6625 49.3703 49.8801 47.3582C50.3395 47.5022 50.931 47.5682 51.5703 47.5681C52.9039 47.5681 54.4425 47.2833 55.4075 46.8329C56.4915 46.3267 58.4477 45.0845 58.093 44.0054ZM50.9483 30.4081C50.9383 31.0022 50.857 31.5414 50.7708 32.1044C50.6781 32.7098 50.5822 33.3358 50.558 34.0956C50.5342 34.8351 50.626 35.604 50.7149 36.3474C50.8944 37.8491 51.0786 39.3951 50.3655 40.9207C50.2547 40.7228 50.1477 40.5069 50.0497 40.2678C49.9611 40.0518 49.7687 39.7048 49.5023 39.2246C48.4657 37.3554 46.0383 32.9783 47.2809 31.1922C47.651 30.6604 48.5903 30.1139 50.9483 30.4081ZM48.0902 20.3444C51.546 20.4212 54.2796 21.7211 56.2152 24.2079C57.6996 26.1153 56.065 34.7947 51.3328 42.2823C51.2861 42.2226 51.2385 42.1623 51.1893 42.1005C51.1696 42.0758 51.1496 42.0506 51.1294 42.0252C52.3522 39.9946 52.1131 37.9855 51.9003 36.2042C51.8128 35.4732 51.7303 34.7827 51.7513 34.1343C51.773 33.4467 51.8634 32.8573 51.9507 32.2872C52.0583 31.5846 52.1676 30.8577 52.1374 30.0008C52.1599 29.9109 52.169 29.8047 52.1572 29.6787C52.0802 28.8569 51.1472 26.3977 49.2454 24.1716C48.2052 22.9542 46.6881 21.5917 44.6167 20.6727C45.5077 20.487 46.7261 20.3139 48.0902 20.3444ZM28.7523 46.5711C27.7966 47.7265 27.1365 47.5051 26.9195 47.4324C25.5052 46.9581 23.8644 43.9527 22.4176 39.1868C21.1658 35.0631 20.4342 30.9164 20.3764 29.7536C20.1935 26.0762 21.0801 23.5132 23.0115 22.1359C26.1548 19.8946 31.3226 21.2361 33.3991 21.9166C33.3692 21.9461 33.3382 21.9739 33.3086 22.0039C29.9011 25.4642 29.982 31.3761 29.9903 31.7374C29.99 31.8768 30.0016 32.0743 30.0176 32.3458C30.0762 33.3401 30.1853 35.1907 29.8939 37.2866C29.6229 39.2341 30.22 41.1403 31.5317 42.5164C31.6675 42.6588 31.8092 42.7926 31.9556 42.9185C31.3717 43.5472 30.1028 44.9374 28.7523 46.5711ZM32.3936 41.6858C31.3364 40.5768 30.8563 39.034 31.0762 37.4528C31.384 35.2388 31.2703 33.3106 31.2093 32.2748C31.2008 32.1298 31.1932 32.0028 31.1887 31.9026C31.6865 31.4588 33.9934 30.2159 35.6384 30.5949C36.3893 30.7679 36.8466 31.2818 37.0368 32.166C38.0211 36.7434 37.1671 38.6512 36.4809 40.1843C36.3395 40.5001 36.2059 40.7987 36.0917 41.1076L36.0033 41.3463C35.7794 41.95 35.5711 42.5112 35.442 43.0442C34.3182 43.0408 33.2249 42.5581 32.3936 41.6858ZM32.5661 47.859C32.238 47.7766 31.9428 47.6334 31.7697 47.5147C31.9143 47.4462 32.1717 47.3532 32.6181 47.2607C34.7786 46.8134 35.1122 46.4978 35.8408 45.5676C36.0079 45.3544 36.1973 45.1126 36.4595 44.8181C36.8501 44.3784 37.029 44.4526 37.353 44.5877C37.6156 44.697 37.8714 45.0279 37.9751 45.3921C38.0241 45.564 38.0793 45.8906 37.8989 46.1445C36.3768 48.2874 34.159 48.2598 32.5661 47.859ZM43.8727 58.4384C41.2297 59.0078 40.2939 57.6518 39.6772 56.1017C39.2792 55.1009 39.0836 50.5881 39.2224 45.6046C39.2242 45.5382 39.2148 45.4742 39.1966 45.414C39.1808 45.2978 39.1565 45.1802 39.1228 45.0619C38.9163 44.3367 38.4134 43.7302 37.8101 43.4787C37.5703 43.3789 37.1303 43.1956 36.6015 43.3316C36.7143 42.8644 36.9099 42.337 37.1218 41.7658L37.2108 41.5254C37.311 41.2545 37.4366 40.9739 37.5695 40.6769C38.2876 39.0728 39.2711 36.8758 38.2037 31.9123C37.8038 30.0533 36.4688 29.1455 34.4448 29.3563C33.2314 29.4825 32.1214 29.9748 31.5678 30.257C31.4487 30.3177 31.3398 30.3762 31.2381 30.4333C31.3926 28.5602 31.9765 25.0596 34.1605 22.8449C35.5355 21.4505 37.3668 20.7619 39.5981 20.7989C43.9945 20.8714 46.8137 23.1399 48.4048 25.0304C49.7758 26.6594 50.5182 28.3003 50.8145 29.1853C48.5864 28.9576 47.071 29.3999 46.3027 30.5041C44.6315 32.9062 47.217 37.5685 48.4597 39.8092C48.6875 40.2199 48.8842 40.5748 48.9461 40.7256C49.3507 41.7117 49.8746 42.3699 50.2571 42.8506C50.3743 42.9978 50.4881 43.1406 50.5746 43.2653C49.8998 43.461 48.6876 43.9129 48.798 46.1722C48.709 47.3059 48.0753 52.6134 47.7536 54.4886C47.3287 56.966 46.422 57.8888 43.8727 58.4384ZM54.9048 45.7441C54.2148 46.0662 53.06 46.3079 51.9629 46.3597C50.7512 46.4168 50.1344 46.2232 49.9893 46.1042C49.9212 44.6963 50.4424 44.5492 50.994 44.3934C51.0807 44.3689 51.1652 44.3451 51.2468 44.3164C51.2976 44.3579 51.3531 44.3991 51.4139 44.4395C52.3878 45.0858 54.125 45.1556 56.5772 44.6466C56.5862 44.6447 56.5952 44.643 56.6041 44.6411C56.2734 44.9521 55.7074 45.3694 54.9048 45.7441Z" fill="white"/>
</svg>
