<svg width="78" height="78" viewBox="0 0 78 78" fill="none" xmlns="http://www.w3.org/2000/svg">
<path fill-rule="evenodd" clip-rule="evenodd" d="M53.8278 52.4029L34.0608 58.3284C33.923 58.3704 33.7768 58.3758 33.6364 58.344C33.4961 58.3122 33.3663 58.2443 33.2597 58.147C33.1532 58.0497 33.0736 57.9263 33.0287 57.7888C32.9838 57.6513 32.9751 57.5045 33.0035 57.3626L40.0665 23.0795C40.0963 22.9394 40.1691 22.8123 40.2745 22.716C40.3799 22.6197 40.5127 22.559 40.6542 22.5424C40.7957 22.5259 40.9388 22.5544 41.0634 22.6238C41.188 22.6933 41.2878 22.8002 41.3488 22.9297L54.4238 51.0769C54.4824 51.202 54.5133 51.3385 54.5144 51.4768C54.5155 51.6151 54.4867 51.7521 54.43 51.8781C54.3734 52.0042 54.2902 52.1164 54.1862 52.207C54.0822 52.2976 53.96 52.3644 53.8278 52.4029ZM57.2182 51.0036L42.0826 18.413C41.8966 18.011 41.6051 17.6676 41.2396 17.4196C40.874 17.1717 40.4482 17.0286 40.0078 17.0057C39.5674 16.9752 39.1272 17.0676 38.7357 17.2726C38.3441 17.4776 38.0165 17.7873 37.7888 18.1675L21.3757 45.1322C21.1253 45.5403 20.9951 46.0115 21.0001 46.491C21.0052 46.9705 21.1453 47.4388 21.4042 47.8416L29.4309 60.4465C29.7333 60.9176 30.1794 61.2775 30.7023 61.4723C31.2252 61.6671 31.7968 61.6863 32.3315 61.5271L55.6316 54.5417C55.9835 54.4386 56.309 54.2601 56.5857 54.0184C56.8624 53.7766 57.0837 53.4775 57.2343 53.1415C57.385 52.8055 57.4614 52.4407 57.4583 52.0722C57.4553 51.7036 57.3728 51.3402 57.2166 51.0067L57.2182 51.0036Z" fill="#0C344B"/>
</svg>
