<svg width="78" height="78" viewBox="0 0 78 78" fill="none" xmlns="http://www.w3.org/2000/svg">
<path d="M43.3735 38.4638C43.3735 36.3122 41.5844 34.5677 39.3771 34.5677C37.1702 34.5677 35.3807 36.3122 35.3807 38.4638C35.3807 40.6157 37.1702 42.3601 39.3771 42.3601C41.5844 42.3601 43.3735 40.6157 43.3735 38.4638Z" fill="#53C1DE"/>
<path fill-rule="evenodd" clip-rule="evenodd" d="M52.3563 31.2305C53.2002 27.8872 54.2611 21.6872 50.5214 19.5852C46.7992 17.4924 41.9555 21.5026 39.3978 23.9098C36.8475 21.5266 31.8678 17.5336 28.1313 19.6422C24.4105 21.742 25.5579 27.8392 26.4206 31.2035C22.9498 32.1646 17 34.2346 17 38.4638C17 42.6811 22.9436 44.9332 26.3939 45.8933C25.528 49.2763 24.4381 55.2863 28.1636 57.3815C31.914 59.4898 36.8783 55.5917 39.4597 53.1583C42.0338 55.5796 46.831 59.5031 50.5539 57.4021C54.2885 55.2944 53.3159 49.1776 52.4531 45.7937C55.7978 44.8315 61.7541 42.6284 61.7541 38.4638C61.7541 34.2752 55.7724 32.1884 52.3563 31.2305ZM51.9324 44.0005C51.3659 42.2524 50.6014 40.3934 49.6662 38.4731C50.5589 36.5981 51.2937 34.7632 51.8443 33.0263C54.3486 33.7342 59.8423 35.3519 59.8423 38.4638C59.8423 41.605 54.5705 43.238 51.9324 44.0005ZM49.5959 55.789C46.8182 57.3565 42.692 53.6044 40.791 51.8213C42.0521 50.4766 43.3124 48.9133 44.5424 47.1773C46.7061 46.9903 48.75 46.6843 50.6038 46.2665C51.2109 48.6601 52.3859 54.2144 49.5959 55.789ZM29.1188 55.7666C26.3408 54.205 27.6106 48.8419 28.2476 46.3499C30.0806 46.7453 32.1099 47.0297 34.2787 47.2012C35.5167 48.8998 36.8135 50.4611 38.1204 51.8285C36.5058 53.3512 31.9098 57.3355 29.1188 55.7666ZM18.9117 38.4638C18.9117 35.311 24.3726 33.7049 26.934 32.9989C27.4941 34.7747 28.2287 36.6316 29.1153 38.5093C28.2172 40.4149 27.4721 42.3011 26.9068 44.098C24.4645 43.4164 18.9117 41.6186 18.9117 38.4638ZM29.0891 21.2553C31.8785 19.6812 36.2065 23.5147 38.0581 25.2402C36.758 26.6013 35.4731 28.1509 34.2457 29.8397C32.1409 30.0299 30.126 30.3353 28.2737 30.7445C27.5787 28.0311 26.3028 22.8277 29.0891 21.2553ZM45.9101 31.8656C47.3381 32.0413 48.7062 32.275 49.9908 32.5609C49.6051 33.766 49.1245 35.0261 48.5583 36.3179C47.7377 34.7999 46.8568 33.3124 45.9101 31.8656ZM39.3984 26.5721C40.2802 27.5035 41.1633 28.5434 42.0322 29.6717C40.2699 29.5904 38.5048 29.5901 36.7425 29.6705C37.6121 28.5527 38.5028 27.5143 39.3984 26.5721ZM30.2122 36.3166C29.6554 35.0293 29.1791 33.7636 28.79 32.5412C30.067 32.2627 31.4287 32.035 32.8474 31.8622C31.898 33.3058 31.0186 34.7927 30.2122 36.3166ZM32.8882 45.1985C31.4226 45.0391 30.0402 44.8229 28.7637 44.552C29.1589 43.3082 29.6457 42.0152 30.2143 40.7002C31.0319 42.2399 31.9247 43.7413 32.8882 45.1985ZM39.4513 50.4872C38.5452 49.534 37.6413 48.4796 36.7586 47.3456C38.5309 47.4134 40.3066 47.4136 42.0787 47.3365C41.2072 48.4912 40.3272 49.547 39.4513 50.4872ZM48.5765 40.6333C49.1748 41.9626 49.679 43.2485 50.0795 44.4713C48.7818 44.7601 47.3809 44.9926 45.9047 45.1652C46.8584 43.691 47.7534 42.1804 48.5765 40.6333ZM43.4755 45.3911C40.7646 45.58 38.0368 45.5779 35.325 45.4066C33.7841 43.2122 32.4124 40.9045 31.2284 38.5087C32.4067 36.1178 33.7685 33.8146 35.302 31.6237C38.0158 31.4237 40.7462 31.4231 43.46 31.6249C44.9804 33.8156 46.34 36.1129 47.5457 38.4821C46.3544 40.8718 44.9855 43.1797 43.4755 45.3911ZM49.5665 21.1999C52.3566 22.7688 51.1147 28.3409 50.5051 30.7639C48.6485 30.3461 46.6321 30.0353 44.5212 29.8421C43.2914 28.1351 42.0172 26.5828 40.7382 25.2392C42.6135 23.4766 46.8034 19.6463 49.5665 21.1999Z" fill="#53C1DE"/>
</svg>
