<svg width="78" height="78" viewBox="0 0 78 78" fill="none" xmlns="http://www.w3.org/2000/svg">
<path d="M39.3384 18.0015C37.5436 18.0082 35.7569 18.2326 34.0183 18.6801C25.6542 20.7656 19.0152 28.3591 18.164 36.9726C17.1091 45.1197 21.2215 53.6095 28.2506 57.8155C35.1563 62.1477 44.503 61.9744 51.2614 57.4177C57.3361 53.4631 61.112 46.2606 60.8895 38.9882C60.7863 31.7951 56.757 24.8022 50.5911 21.1069C47.2334 19.0281 43.2832 17.9854 39.3384 18.0002V18.0015ZM39.2191 21.0384C48.0564 21.0236 56.7141 27.8754 57.6001 37.0303C59.2904 47.1716 50.8914 57.4809 40.6426 57.7819C30.8965 58.7547 21.4708 50.4678 21.192 40.6558C20.4668 32.7129 25.6957 24.8251 33.1645 22.1994C35.0907 21.4307 37.1442 21.0384 39.2178 21.0451L39.2191 21.0384ZM48.3232 26.8205C43.5192 30.5562 38.9189 34.539 34.2207 38.3889C36.3708 38.4157 38.5355 38.4157 40.6922 38.401C43.2122 34.5242 45.8032 30.6986 48.3232 26.8205ZM38.2004 40.5308C35.6804 44.4156 33.0841 48.2493 30.5614 52.1341C35.3802 48.4038 39.959 44.3941 44.6853 40.5657C42.5206 40.5389 40.3571 40.5322 38.1991 40.5322L38.2004 40.5308Z" fill="white"/>
</svg>
