<svg width="78" height="78" viewBox="0 0 78 78" fill="none" xmlns="http://www.w3.org/2000/svg">
<path d="M55.0194 22.7628C52.9759 19.9518 49.9631 18.0027 46.5662 17.2941C43.1694 16.5855 39.6311 17.1679 36.6387 18.9284L26.1694 25.419C24.7661 26.2668 23.5574 27.4023 22.6224 28.7511C21.6874 30.0998 21.0472 31.6315 20.7439 33.2456C20.2462 35.9454 20.6862 38.7346 21.9908 41.1487C21.0968 42.4666 20.4859 43.9565 20.1968 45.5237C19.8993 47.1598 19.9394 48.8397 20.3147 50.4596C20.69 52.0796 21.3925 53.6053 22.3789 54.9424C24.4224 57.7537 27.4351 59.7034 30.8319 60.4131C34.2288 61.1228 37.7676 60.5419 40.7612 58.7831L51.232 52.294C52.6348 51.4457 53.8432 50.3101 54.7782 48.9614C55.7131 47.6127 56.3535 46.0813 56.6575 44.4674C57.1584 41.7656 56.7182 38.9734 55.4106 36.5581C56.3056 35.2405 56.9171 33.7505 57.2061 32.1831C57.5036 30.5464 57.463 28.866 57.0869 27.2457C56.7108 25.6253 56.0071 24.0996 55.0194 22.7628Z" fill="#FF3E00"/>
<path d="M35.6177 55.4815C33.9807 55.9024 32.2554 55.8207 30.6652 55.2471C29.0751 54.6735 27.6934 53.6343 26.6993 52.2643C26.104 51.4612 25.6795 50.5441 25.4522 49.5698C25.2248 48.5955 25.1994 47.5848 25.3776 46.6003C25.4368 46.2769 25.5197 45.9584 25.6254 45.6471L25.8233 45.0612L26.3595 45.4331C27.6041 46.3217 28.9887 46.9946 30.4555 47.4237L30.8374 47.5378L30.7984 47.9081C30.7536 48.4467 30.9035 48.9836 31.2208 49.4206C31.5191 49.8435 31.939 50.1652 32.4243 50.3428C32.9097 50.5203 33.4376 50.5453 33.9375 50.4143C34.1633 50.3555 34.3792 50.2633 34.5781 50.1409L45.0208 43.6503C45.2751 43.4957 45.4942 43.2895 45.6641 43.0449C45.8341 42.8002 45.951 42.5226 46.0074 42.23C46.0636 41.9348 46.0588 41.6313 45.9934 41.3381C45.928 41.0449 45.8033 40.7683 45.6271 40.5253C45.3272 40.112 44.9105 39.7984 44.4309 39.6251C43.9513 39.4518 43.4308 39.4269 42.9369 39.5534C42.7099 39.6124 42.4929 39.7051 42.2932 39.8284L38.2845 42.3034C37.6255 42.7122 36.9088 43.0187 36.1585 43.2128C34.5202 43.6347 32.7933 43.5535 31.2016 42.9795C29.61 42.4056 28.2271 41.3655 27.2323 39.994C26.641 39.1883 26.2209 38.2694 25.9981 37.2943C25.7753 36.3193 25.7546 35.3087 25.9371 34.3253C26.1211 33.3565 26.506 32.4372 27.0668 31.6271C27.6277 30.8169 28.3521 30.1338 29.1931 29.6221L39.6482 23.1315C40.3072 22.7233 41.024 22.4172 41.7742 22.2237C43.4125 21.8008 45.1398 21.8814 46.7319 22.4551C48.3239 23.0288 49.7071 24.0691 50.7019 25.4409C51.2971 26.2441 51.7216 27.1612 51.9489 28.1355C52.1762 29.1097 52.2017 30.1204 52.0236 31.105C51.9646 31.4284 51.8817 31.7469 51.7758 32.0581L51.5779 32.644L51.0417 32.2737C49.7978 31.3839 48.413 30.7109 46.9457 30.2831L46.5638 30.1675L46.6028 29.7971C46.6476 29.2583 46.4971 28.7212 46.1788 28.2846C45.8798 27.8708 45.4634 27.5568 44.9839 27.3834C44.5044 27.2101 43.9839 27.1855 43.4902 27.3128C43.2641 27.3715 43.0481 27.4642 42.8496 27.5878L32.3726 34.0565C32.1183 34.2102 31.8992 34.4161 31.7297 34.6606C31.5602 34.9051 31.4442 35.1827 31.3891 35.4753C31.3315 35.7706 31.3356 36.0747 31.401 36.3683C31.4665 36.662 31.5919 36.9389 31.7694 37.1815C32.0695 37.5946 32.4863 37.9078 32.9659 38.0808C33.4455 38.2538 33.9658 38.2785 34.4596 38.1518C34.6864 38.0927 34.9032 38.0006 35.1033 37.8784L39.0965 35.4018C39.7551 34.9929 40.472 34.6868 41.2224 34.494C42.8608 34.072 44.5878 34.153 46.1797 34.7267C47.7715 35.3003 49.1548 36.3401 50.1502 37.7112C50.7439 38.5151 51.1668 39.4325 51.3928 40.4067C51.6188 41.3809 51.6431 42.3913 51.4641 43.3753C51.2814 44.3451 50.897 45.2656 50.3361 46.0767C49.7751 46.8878 49.0501 47.5714 48.2082 48.0831L37.7545 54.5737C37.0959 54.9827 36.3791 55.2888 35.6286 55.4815" fill="white"/>
</svg>
