<svg width="78" height="78" viewBox="0 0 78 78" fill="none" xmlns="http://www.w3.org/2000/svg">
<path d="M26.125 33.5C27.875 26.5 32.25 23 39.25 23C49.75 23 51.0625 30.875 56.3125 32.1875C59.8125 33.0625 62.875 31.75 65.5 28.25C63.75 35.25 59.375 38.75 52.375 38.75C41.875 38.75 40.5625 30.875 35.3125 29.5625C31.8125 28.6875 28.75 30 26.125 33.5ZM13 49.25C14.75 42.25 19.125 38.75 26.125 38.75C36.625 38.75 37.9375 46.625 43.1875 47.9375C46.6875 48.8125 49.75 47.5 52.375 44C50.625 51 46.25 54.5 39.25 54.5C28.75 54.5 27.4375 46.625 22.1875 45.3125C18.6875 44.4375 15.625 45.75 13 49.25Z" fill="#44A8B3"/>
</svg>
