<svg width="78" height="78" viewBox="0 0 78 78" fill="none" xmlns="http://www.w3.org/2000/svg">
<g clip-path="url(#clip0_119_26)">
<path d="M53.5439 17.9963H24.6577C21.2391 17.9963 18.4678 20.7498 18.4678 24.1463V52.8463C18.4678 56.2429 21.2391 58.9963 24.6577 58.9963H53.5439C56.9625 58.9963 59.7338 56.2429 59.7338 52.8463V24.1463C59.7338 20.7498 56.9625 17.9963 53.5439 17.9963Z" fill="#3178C6"/>
<path d="M37.247 40.7386H42.4053V37.4554H27.9783V40.7386H33.1365V55.3929H37.247V40.7386ZM44.0172 54.5921C44.6701 54.9284 45.468 55.1767 46.3546 55.3448C47.2411 55.513 48.2083 55.5931 49.1755 55.5931C50.1426 55.5931 51.0292 55.505 51.9158 55.3208C52.8024 55.1366 53.5278 54.8323 54.1725 54.4399C54.8254 54.0155 55.3815 53.479 55.7039 52.7583C56.0263 52.0376 56.2761 51.2368 56.2761 50.1958C56.2761 49.4671 56.1633 48.8345 55.9457 48.2739C55.7281 47.7134 55.4137 47.2329 54.9785 46.8325C54.5675 46.4081 54.0919 46.0317 53.5278 45.7114C52.9636 45.3911 52.3188 45.0548 51.5934 44.7505C51.0615 44.5343 50.6262 44.3261 50.1426 44.1179C49.7235 43.9097 49.3609 43.7015 49.0949 43.4933C48.7967 43.277 48.571 43.0528 48.4098 42.8206C48.2486 42.5804 48.168 42.3161 48.168 42.0198C48.168 41.7476 48.2397 41.4993 48.3856 41.2751C48.5315 41.0509 48.7322 40.8667 48.9901 40.7065C49.248 40.5464 49.5704 40.4263 49.9573 40.3382C50.3361 40.2501 50.7552 40.2101 51.2468 40.2101C51.5853 40.2101 51.94 40.2349 52.2946 40.2853C52.6654 40.3358 53.0442 40.4135 53.423 40.5176C53.8018 40.6217 54.1725 40.7498 54.5513 40.9099C54.906 41.0701 55.2364 41.2543 55.5185 41.4625V37.6988C54.906 37.4666 54.229 37.2904 53.5036 37.1783C52.7782 37.0662 51.9722 37.0101 51.005 37.0101C50.0379 37.0101 49.1513 37.1142 48.2647 37.3144C47.3781 37.5146 46.6528 37.8349 46.008 38.2754C45.3551 38.7078 44.8796 39.2363 44.4766 39.957C44.0978 40.6297 43.9124 41.3984 43.9124 42.3593C43.9124 43.5605 44.259 44.6015 44.9602 45.4023C45.6534 46.2832 46.7334 46.9238 48.1035 47.5644C48.6597 47.7886 49.1513 48.0129 49.6349 48.2291C50.1185 48.4453 50.5215 48.6695 50.8439 48.9017C51.1904 49.134 51.4645 49.3902 51.6498 49.6625C51.8513 49.9347 51.9561 50.2551 51.9561 50.6234C51.9561 50.8797 51.8932 51.1199 51.7707 51.3441C51.6482 51.5683 51.4564 51.7605 51.1985 51.9207C50.9406 52.0808 50.6262 52.209 50.2313 52.3051C49.8525 52.3931 49.4253 52.4412 48.8611 52.4412C47.9746 52.4412 47.088 52.289 46.282 51.9847C45.3954 51.6804 44.5895 51.224 44.0172 50.7483V54.5921Z" fill="white"/>
</g>
<defs>
<clipPath id="clip0_119_26">
<rect width="42" height="41" fill="white" transform="translate(18 18)"/>
</clipPath>
</defs>
</svg>
